<?xml version="1.0" encoding="UTF-8"?>
<svg id="Layer_1" data-name="Layer 1" xmlns="http://www.w3.org/2000/svg" viewBox="0 0 511.8 511.8">
  <defs>
    <style>
      .cls-1 {
        fill: #d7d8d9;
      }

      .cls-1, .cls-2, .cls-3, .cls-4, .cls-5, .cls-6, .cls-7 {
        stroke-width: 0px;
      }

      .cls-2 {
        fill: #d4d5d6;
      }

      .cls-3 {
        fill: #00f8a2;
      }

      .cls-4 {
        fill: #0a0f0d;
      }

      .cls-5 {
        fill: #1ee2a6;
      }

      .cls-6 {
        fill: #fff;
      }

      .cls-7 {
        fill: #d7d7d9;
      }
    </style>
  </defs>
  <circle class="cls-4" cx="255.9" cy="255.9" r="255.9"/>
  <path class="cls-2" d="M423.61,255.15c.9,1.75.8,3.7,1.01,5.55.55,4.82,1.03,9.64,1.19,14.51.07,2.07.19,4.16.29,6.24-.86-.11-.72-.78-.72-1.34.06-6.04-.58-12.05-1.09-18.05-.2-2.3-.79-4.57-.67-6.91Z"/>
  <path class="cls-1" d="M440.44,224.72c-.65-.95-1.42-1.87-.72-3.14.18,1.06.85,2.01.72,3.14Z"/>
  <path class="cls-1" d="M441.14,227.52c-.92-.77-.67-1.83-.71-2.81.54.86.7,1.82.71,2.81Z"/>
  <g>
    <path class="cls-1" d="M71.36,148.75c.48-.97,1.39-.68,2.16-.68,8.15-.02,16.31-.01,24.46-.01-.3,1.11-1.23.68-1.89.69-6.58.04-13.16.04-19.74.01-1.66,0-3.33.59-4.99,0Z"/>
    <path class="cls-1" d="M97.97,148.06c.6-1.44,1.52-2.62,2.81-3.51-.42,1.58-1.31,2.79-2.81,3.51Z"/>
    <path class="cls-7" d="M83.61,130.18c-.52,1.28-1.29,2.37-2.45,3.15.3-1.45,1.03-2.58,2.45-3.15Z"/>
    <path class="cls-7" d="M88.51,124.23c-.19.98-.76,1.59-1.76,1.76.23-.94.79-1.55,1.76-1.76Z"/>
    <path class="cls-7" d="M85.01,128.43c-.09.89-.73,1.33-1.4,1.76-.02-.98.42-1.58,1.4-1.76Z"/>
    <path class="cls-7" d="M81.16,133.34c-.02.71-.47,1.11-1.05,1.41-.04-.76.17-1.34,1.05-1.41Z"/>
    <path class="cls-7" d="M80.11,134.73c-.02.71-.48,1.11-1.05,1.41-.03-.75.16-1.34,1.05-1.41Z"/>
    <path class="cls-7" d="M90.26,122.05c0,.74-.36,1.13-1.11,1.14.09-.65.51-.99,1.11-1.14Z"/>
    <path class="cls-7" d="M86.41,126.68c-.03.68-.37,1.04-1.06,1.06.06-.64.39-1.02,1.06-1.06Z"/>
    <path class="cls-1" d="M101.48,143.86c0-.3.06-.56.36-.71.01.3-.06.56-.36.71Z"/>
    <path class="cls-7" d="M78.36,136.83c0,.3-.05.57-.36.71-.01-.3.07-.56.36-.71Z"/>
    <path class="cls-7" d="M85.36,127.73c0,.3-.06.56-.36.71,0-.3.06-.56.36-.71Z"/>
    <path class="cls-7" d="M86.76,125.98c0,.3-.05.56-.36.71-.01-.3.07-.56.36-.71Z"/>
    <path class="cls-7" d="M77.66,137.89c0,.3-.05.56-.35.7-.02-.3.04-.57.35-.7Z"/>
    <path class="cls-7" d="M88.86,123.48c0,.31-.03.6-.36.76-.02-.32.09-.58.36-.76Z"/>
    <path class="cls-1" d="M101.12,144.21c.12-.12.24-.24.36-.36-.12.12-.24.24-.36.36Z"/>
    <path class="cls-7" d="M78.71,136.49c-.12.12-.24.24-.36.36.12-.12.24-.24.36-.36Z"/>
    <path class="cls-7" d="M79.06,136.14c-.12.12-.24.24-.36.36.12-.12.24-.24.36-.36Z"/>
    <path class="cls-1" d="M100.78,144.55c.12-.12.24-.24.35-.36-.12.12-.24.24-.35.36Z"/>
    <path class="cls-1" d="M101.82,143.16c.14-.12.29-.24.43-.35-.14.12-.29.24-.43.35Z"/>
    <path class="cls-7" d="M77.31,138.59c-.15.12-.3.23-.45.35.15-.12.3-.23.45-.35Z"/>
    <path class="cls-7" d="M78.01,137.54c-.12.12-.24.24-.35.35.12-.12.24-.24.35-.35Z"/>
    <path class="cls-3" d="M194.59,329.04c-1.91-.68-.4-2.11-.7-3.15v-.35c.81.1.59-1.15,1.4-1.05.3,1.1.73,2.17-.51,3.08-.28.2-.14.96-.19,1.47Z"/>
    <path class="cls-3" d="M194.24,322.04c-1.28-.12-1.66-.65-.89-1.81.35-.53.59-1.13.89-1.69.85,1.05-.4,2.1,0,3.15v.35Z"/>
    <path class="cls-3" d="M194.24,322.04v-.35c.56.13.77-.86,1.35-.46.69.48.04.89-.17,1.31-.2.4.46.89-.13,1.25-.71-.37-.93-1.03-1.05-1.75Z"/>
    <g>
      <path class="cls-6" d="M71.36,148.75c-.87-.15-.86-.8-.54-1.3,1.87-2.94,3.58-6,6.04-8.52.15-.12.3-.23.45-.35,0,0,0,0,0,0,.3-.14.36-.41.35-.7,0,0,0,0,0,0,.12-.12.24-.24.35-.35,0,0,0,0,0,0,.3-.14.36-.41.36-.71,0,0,0,.01,0,.01.12-.12.24-.24.36-.36,0,0,0,0,0,0,.12-.12.24-.24.36-.36,0,0,0,0,0,0,.58-.3,1.03-.69,1.05-1.41,0,0,0,0,0,0,.58-.3,1.03-.69,1.05-1.41,0,0,0,0,0,0,1.16-.78,1.93-1.87,2.45-3.15,0,0,0,0,0,0,.67-.42,1.31-.87,1.4-1.76,0,0,0,.01,0,.01.3-.15.36-.41.36-.71,0,0,0,0,0,0,.69-.02,1.03-.38,1.06-1.06,0,0,0,0,0,0,.3-.14.36-.41.36-.71,0,0,0,0,0,0,1-.17,1.57-.78,1.76-1.76,0,0,0,.01,0,.01.33-.16.36-.45.36-.76.09-.1.19-.2.28-.3.75,0,1.11-.4,1.11-1.14.46-1.95,2.16-3.02,3.36-4.36,2.83-3.18,5.96-6.07,8.97-9.09.26-.26.53-.45.91-.46,1.3-.38,2.14-1.21,2.52-2.51.1-.1.19-.19.29-.29.31,0,.61-.03.76-.35,0,0,0,0,0,0,.12-.12.24-.24.35-.35,0,0,0,0,0,0,.12-.12.24-.24.35-.35,0,0,0,0,0,0,.12-.12.23-.24.35-.35,0,0,0,0,0,0,1.33-.37,2.01-1.48,2.8-2.45,0,0,0,0,0,0,.12-.12.23-.23.35-.35,0,0,0,0,0,0,1.05-.16,1.55-.99,2.1-1.75,0,0,0,0,0,0,.12-.12.23-.23.35-.35,0,0,0,0,0,0,.83-.1,1.32-.55,1.4-1.4,0,0,0,0,0,0,.3,0,.56-.05.71-.35,0,0,0,0,0,0,.89-.08,1.33-.74,1.76-1.4,0,0,0,0,0,0,.89-.09,1.33-.74,1.76-1.4,0,0,0,0,0,0,.12-.12.24-.24.35-.35,0,0,0,0,0,0,.51,0,.87-.23,1.06-.7,0,0,0,0,0,0,.12-.12.24-.24.35-.35,0,0,0,0,0,0,.72-.02,1.11-.48,1.41-1.05,0,0-.01,0-.01,0,.71-.03,1.11-.48,1.41-1.06,0,0,0,0,0,0,.71-.02,1.11-.48,1.41-1.05,0,0,0,0,0,0,.71-.03,1.11-.47,1.41-1.05,0,0,0,0,0,0,1.02-.3,1.89-.82,2.46-1.75,0,0,0,0,0,0,.51,0,.87-.22,1.06-.7,0,0,0,0,0,0,.71-.03,1.11-.47,1.41-1.05,0,0,0,0,0,0,.12-.12.24-.24.36-.36,0,0,0,0,0,0,.3,0,.56-.06.71-.36,0,0-.01,0-.01,0,.51,0,.87-.23,1.06-.71,0,0,0,0,0,0,.12-.12.24-.24.36-.36,0,0,0,0,0,0,.3,0,.56-.06.71-.36,0,0-.01.01-.01.01.12-.12.24-.24.36-.36,0,0-.01,0-.01,0,.3,0,.56-.06.71-.36,0,0-.01.01-.01.01.12-.12.24-.24.36-.36,0,0,0,0,0,0,.3,0,.57-.06.71-.36,0,0-.01,0-.01,0,.51,0,.87-.22,1.06-.71,0,0,0,0,0,0,.3,0,.56-.06.71-.36,0,0-.01,0-.01,0,.33-.11.68-.16.97-.32,2.95-1.7,5.94-3.33,8.8-5.16,1.4-.89,3.13-1.22,4.24-2.57,0,0,0,0,0,0,1.87-.72,3.76-1.38,5.26-2.8,0,0,0,0,0,0,.3,0,.57-.05.71-.35,0,0,0,0,0,0,1.97-.35,3.61-1.4,5.26-2.45,0,0-.01,0-.01,0,1.23-.08,2.23-.65,3.16-1.41,0,0-.01,0-.01,0,.48.04.9-.13,1.34-.31,7.96-3.25,16.01-6.27,24.28-8.67,1.99-.58,4.08-.87,5.93-1.88.08,0,.17,0,.25.01,1.96-.21,3.86-.65,5.69-1.41.09,0,.18,0,.27,0,.23,0,.48.04.7,0,6.39-1.4,12.85-2.38,19.33-3.25,6.27-.84,12.56-1.39,18.85-1.57,9.7-.27,19.4-.22,29.08.93,3.73.44,7.46.94,11.19,1.34,2.94.31,5.79,1.23,8.77,1.16,0,0-.01,0-.01,0,1.55.75,3.22.97,4.91,1.06,2.56.52,5.28.31,7.64,1.73,1.03.9,2.3.96,3.57,1.06,0,0-.01,0-.01,0,.37.53.92.31,1.41.36,0,0-.02,0-.02,0,5.26,2.18,10.79,3.61,16.11,5.63.62,1.86-.34,4.3,2.04,5.52.16.08.3.41.29.61-.07,1.99.35,3.94.08,5.99-.41,3.05-1.7,4.6-4.86,4.33-.5-.04-.92.23-.98.78-.06.47.26.73.64.94.59.33,1.15.34,1.83.18,2.35-.55,3.54.57,2.98,2.91-.25,1.03-.16,1.93.09,2.88-.7-.12-1.4-.24-2.11-.36,0,0,0,0,0,0-.14-.31-.41-.36-.71-.36,0,0,0,0,0,0-.25-.43-.66-.36-1.06-.35,0,0,0,0,0,0-.35-.83-1.08-.71-1.76-.71,0,0,.01,0,.01,0-.26-.66-.81-.74-1.41-.71,0,0,.01,0,.01,0-.25-.42-.66-.35-1.05-.36-.15-.3-.42-.34-.71-.35,0,0,.02,0,.02,0-1.5-1.04-3.27-1.47-4.95-2.05-12.13-4.25-24.53-7.28-37.3-8.91-5.98-.76-11.98-1.19-17.98-1.59-4.18-.28-8.39-.05-12.58-.05-3.6,0-7.17.42-10.75.65-6.36.4-12.69,1.09-18.94,2.24-9.7,1.78-19.21,4.36-28.49,7.71-1.28.46-2.73.63-3.78,1.65,0,0,0,0,0,0-.39,0-.81-.07-1.06.36,0,0,.01,0,.01,0-.32,0-.6.06-.71.42-1.82,1.13-3.7,2.11-5.87,2.38-.4.07-.82.06-1.18.22-2.87,1.24-5.83,2.33-8.55,3.84-2.15,1.2-4.63,1.86-6.45,3.65,0,0,0,0,0,0-1.18.35-2.34.74-3.16,1.75,0,0,0,0,0,0-.73.11-1.39.34-1.76,1.05,0,0,0,0,0,0-.3,0-.56.06-.71.36,0,0,.01,0,.01,0-.54,0-.91.24-1.06.78-1.21,1.5-3.01,2.16-4.56,3.16-5.47,3.53-10.8,7.26-15.92,11.26-3.7,2.89-7.13,6.12-10.73,9.15-2.72,2.29-5.22,4.82-7.68,7.37-4.27,4.44-8.39,9.01-12.23,13.83-.27.33-.5.64-.96.66-.14.12-.29.24-.43.35,0,0,0,0,0,0-.3.14-.37.41-.36.71,0,0,0,0,0,0-.12.12-.24.24-.36.36,0,0,0,0,0,0-.12.12-.24.24-.35.36,0,0,0,0,0,0-1.29.89-2.21,2.07-2.81,3.51,0,0,0,0,0,0-8.15,0-16.31,0-24.46.01-.77,0-1.68-.29-2.16.68Z"/>
      <path class="cls-6" d="M328.32,86.1c-.25-.95-.33-1.85-.09-2.88.56-2.35-.63-3.47-2.98-2.91-.68.16-1.24.16-1.83-.18-.37-.21-.7-.47-.64-.94.07-.56.48-.83.98-.78,3.16.27,4.45-1.28,4.86-4.33.28-2.05-.15-4-.08-5.99,0-.21-.12-.53-.29-.61-2.38-1.22-1.42-3.66-2.04-5.52,1.16.51,2.28,1.19,3.5,1.51,2.28.61,4.24,2.14,6.67,2.32,0,0-.01,0-.01,0,.14.3.41.36.71.36,0,0,0,0,0,0,.15.3.41.35.71.36,0,0-.01,0-.01,0,.15.29.42.36.71.36,0,0-.01,0-.01,0,.25.42.67.35,1.06.36,0,0-.01,0-.01,0,.14.3.42.36.71.36,0,0,0,0,0,0,.15.3.41.36.71.36,0,0,0,0,0,0,.14.3.41.35.71.36,0,0-.01,0-.01,0,.15.29.42.36.71.36,0,0-.01,0-.01,0,.25.42.67.36,1.06.36,0,0,0,0,0,0,.36.73,1.03.94,1.76,1.06,0,0-.01,0-.01,0,1.05.83,2.22,1.41,3.51,1.75,0,0,0,0,0,0,.14.3.41.36.7.35,0,0,0,0,0,0,1.26,1.46,3.16,1.85,4.74,2.77,2.94,1.7,5.76,3.62,8.92,4.94,0,0,0,0,0,0,.26.65.8.75,1.41.71,0,0-.01,0-.01,0,.12.12.24.24.36.36,0,0-.01,0-.01,0,.15.3.41.36.71.36,0,0,0,0,0,0,.12.12.24.24.36.36,0,0-.01,0-.01,0,.16.33.46.36.78.35.46,0,.76.24.98.63.1.37.38.43.7.43,0,0,0,0,0,0,.12.12.24.24.36.35,0,0,0,0,0,0,.14.3.41.36.71.35,0,0,0,0,0,0,.12.12.24.24.35.35,0,0,0,0,0,0,.19.48.54.71,1.05.7,0,0,0,0,0,0,.14.3.41.36.7.35,0,0,0,0,0,0,.24.9.95,1.21,1.75,1.4,0,0,0,0,0,0,.19.48.54.71,1.05.7,0,0,0,0,0,0,.36.73.9,1.15,1.75,1.05,0,0,0,0,0,0,0,.47.23.7.7.7,0,0,0,0,0,0,.29.58.69,1.03,1.4,1.05,0,0,0,0,0,0,.7,1.02,1.68,1.65,2.8,2.1,0,0,0,0,0,0,.3.58.69,1.03,1.4,1.05,0,0,0,0,0,0,.14.3.41.36.7.35,0,0,0,0,0,0,.12.12.24.24.35.35,0,0,0,0,0,0,.12.12.24.24.36.36,0,0,0,0,0,0,.14.3.41.36.71.36,0,0,0,0,0,0,.12.12.24.24.36.36,0,0,0,0,0,0,.12.12.24.24.36.36,0,0,0,0,0,0,.12.12.24.24.36.36,0,0,0,0,0,0,.12.12.24.24.36.36,0,0,0,0,0,0,.19.48.54.71,1.06.7,0,0,0,0,0,0,.12.12.24.24.35.35,0,0,0,0,0,0,.12.12.24.24.36.36,0,0,0,0,0,0,.15.3.41.36.71.36,0,0,0,0,0,0,0,.47.24.7.71.71,0,0,0,0,0,0,.14.12.28.23.42.35,1.8.34,2.78,1.89,4.01,2.96,5.36,4.67,10.46,9.65,15.25,14.89,7.17,7.83,14,15.98,19.96,24.81,4.65,6.89,9.07,13.9,12.88,21.3,3.09,6,6.19,11.98,8.72,18.25,3.03,7.49,5.88,15.04,8.06,22.83-.7,1.26.07,2.19.72,3.14,0,0,0-.01,0-.01.03.99-.22,2.05.71,2.81,0,0,0-.01,0-.01.06.69.02,1.41.18,2.07,2.09,8.37,3.47,16.87,4.78,25.39,1.34,8.78,1.83,17.61,2.02,26.48-.11,0-.22,0-.33-.01-7.13,0-14.25,0-21.38,0-.1,0-.21.01-.31.01-.1-2.08-.22-4.17-.29-6.24-.16-4.86-.64-9.69-1.19-14.51-.21-1.85-.11-3.81-1.01-5.55-1.14-2.77-1.11-5.78-1.72-8.66-1.22-5.78-2.43-11.56-4.16-17.23-2.85-9.34-6.04-18.54-10.08-27.45-4.07-8.98-8.95-17.49-14.21-25.8-3.72-5.88-8-11.38-12.37-16.81-5.3-6.58-11.1-12.7-17.21-18.51-3.7-3.51-7.68-6.73-11.54-10.07-.23-.2-.44-.37-.47-.68-.12-.15-.24-.29-.36-.44,0,0,.01.01.01.01-.15-.3-.41-.36-.71-.36,0,0,0,0,0,0-.12-.12-.24-.24-.36-.36,0,0,0,0,0,0-.12-.12-.24-.24-.36-.36h0c-.12-.11-.24-.23-.36-.35,0,0,0,0,0,0-.15-.3-.41-.36-.71-.36,0,0,0,0,0,0-.12-.12-.24-.24-.36-.36,0,0,0,0,0,0-.12-.12-.24-.24-.36-.36,0,0,0,0,0,0-.19-.48-.54-.71-1.06-.7,0,0,0,0,0,0-.29-.58-.69-1.03-1.41-1.05,0,0,0,0,0,0-.3-.58-.69-1.03-1.41-1.05,0,0,0,0,0,0-.89-1.21-2.15-1.9-3.51-2.45,0,0,0,0,0,0-.52-.75-1.22-1.21-2.1-1.4,0,0,0,0,0,0-.18-.48-.54-.71-1.05-.7,0,0,0,0,0,0-.18-.49-.54-.71-1.05-.7,0,0,0,0,0,0-.4-.74-1.07-.98-1.85-1.05-1.73-.51-3.18-1.46-4.45-2.72-.12-.15-.24-.3-.35-.44,0,0,0,0,0,0-.15-.29-.41-.36-.71-.35,0,0,0,0,0,0-.58-.89-1.5-1.17-2.46-1.4,0,0,0,0,0,0-1.61-1.45-3.59-2.27-5.47-3.28-.58-.31-1.4-.38-1.56-1.23.28-.63.64-1.21.75-1.94.42-2.78.38-5.57.31-8.35-.03-1.26.16-2.14,1.58-2.37.67-.11,1.26-.55,1.16-1.3-.1-.76-.44-1.49-1.42-1.48-.72,0-1.43-.28-1.51-.94-.24-2.09-1.4-2.05-2.96-1.56-.48.15-1.04.03-1.57.04-1.62.03-1.93.41-1.31,1.85.52,1.2.35,2.33.26,3.57-.14,1.79-.87,3.54.05,5.44.74,1.5.05,2.34-1.71,2.79-.6.15-.92.44-.96,1.05-1.03-.26-1.98-.7-2.81-1.38Z"/>
      <path class="cls-6" d="M292.62,52.13c-2.98.07-5.84-.84-8.77-1.16-3.73-.4-7.46-.9-11.19-1.34-9.67-1.15-19.38-1.2-29.08-.93-6.29.18-12.59.73-18.85,1.57-6.48.87-12.94,1.84-19.33,3.25-.22.05-.46,0-.7,0,1.13-1.29,2.79-.99,4.2-1.28,7.26-1.51,14.6-2.52,21.98-3.34,9.75-1.08,19.51-1.1,29.28-.89,5.2.11,10.41.62,15.6,1.24,5.07.6,10.08,1.47,15.12,2.2.62.09,1.27.19,1.75.68Z"/>
      <path class="cls-6" d="M246.75,70.34c4.2,0,8.41-.23,12.58.05,6,.4,12,.83,17.98,1.59,12.77,1.62,25.18,4.66,37.3,8.91,1.68.59,3.44,1.02,4.95,2.05-.85.11-1.6-.24-2.37-.51-8.4-2.95-16.91-5.57-25.63-7.35-6.53-1.33-13.1-2.42-19.76-3.07-8.34-.82-16.67-1.59-25.06-1.34,0-.11,0-.22,0-.33Z"/>
      <path class="cls-6" d="M246.75,70.34c0,.11,0,.22,0,.33-5.14.47-10.28.96-15.42,1.39-7,.59-13.93,1.7-20.78,3.22-8.05,1.79-16.02,3.94-23.73,6.91-.65.25-1.31.51-2.03.4,1.05-1.02,2.51-1.19,3.78-1.65,9.28-3.34,18.8-5.92,28.49-7.71,6.25-1.15,12.58-1.84,18.94-2.24,3.58-.23,7.15-.66,10.75-.65Z"/>
      <path class="cls-6" d="M198.48,54.91c-1.85,1.01-3.95,1.3-5.93,1.88-8.27,2.4-16.32,5.42-24.28,8.67-.44.18-.86.35-1.34.31.33-.72,1.06-.88,1.68-1.14,9.12-3.79,18.4-7.07,27.98-9.5.64-.16,1.25-.2,1.89-.21Z"/>
      <path class="cls-6" d="M336.38,65.78c-2.42-.18-4.38-1.7-6.67-2.32-1.21-.33-2.34-1-3.5-1.51-5.32-2.02-10.85-3.45-16.11-5.63,1.57-.12,2.96.56,4.39,1,7.02,2.13,13.9,4.68,20.65,7.55.48.2,1,.37,1.23.91Z"/>
      <path class="cls-6" d="M328.32,86.1c.83.68,1.77,1.12,2.81,1.38,1.53.68,2.92,1.65,4.55,2.11.7.62,1.49,1.04,2.45,1.06.11,0,.21.02.32.03.16.86.98.92,1.56,1.23,1.88,1.01,3.86,1.83,5.47,3.28-1.01.08-1.77-.53-2.56-.98-5.01-2.83-10.24-5.2-15.48-7.56-.47-.21-1-.37-1.22-.91.7.12,1.4.24,2.11.36Z"/>
      <path class="cls-6" d="M160.99,93.45c1.82-1.79,4.3-2.45,6.45-3.65,2.72-1.51,5.68-2.6,8.55-3.84.36-.15.78-.15,1.18-.22-1.05,1.2-2.64,1.37-3.95,2.05-3.54,1.83-7.16,3.51-10.75,5.25-.47.23-.93.48-1.48.4Z"/>
      <path class="cls-6" d="M152.58,72.77c-1.1,1.36-2.84,1.68-4.24,2.57-2.86,1.83-5.85,3.46-8.8,5.16-.29.17-.65.22-.97.32.83-1.56,2.54-1.9,3.86-2.77,2.67-1.76,5.49-3.27,8.35-4.72.57-.29,1.11-.66,1.8-.57Z"/>
      <path class="cls-6" d="M362.99,79.78c-3.16-1.31-5.98-3.23-8.92-4.94-1.58-.92-3.48-1.31-4.74-2.77,2.32.44,4.19,1.84,6.2,2.94,2.02,1.11,4.04,2.23,6.03,3.39.56.33,1.31.54,1.43,1.37Z"/>
      <path class="cls-6" d="M157.83,69.97c-1.49,1.42-3.39,2.08-5.26,2.8,1.39-1.62,3.29-2.26,5.26-2.8Z"/>
      <path class="cls-6" d="M163.79,67.17c-1.64,1.05-3.29,2.11-5.26,2.45,1.51-1.34,3.23-2.23,5.26-2.45Z"/>
      <path class="cls-6" d="M204.42,53.51c-1.82.76-3.72,1.2-5.69,1.41,1.72-1.18,3.7-1.32,5.69-1.41Z"/>
      <path class="cls-6" d="M359.47,103.94c1.35.55,2.61,1.24,3.51,2.45-1.49-.36-2.77-1.02-3.51-2.45Z"/>
      <path class="cls-6" d="M110.92,101.48c-.8.97-1.48,2.08-2.8,2.45.54-1.27,1.32-2.26,2.8-2.45Z"/>
      <path class="cls-6" d="M297.52,53.18c-1.69-.09-3.36-.3-4.91-1.06,1.72-.05,3.39.14,4.91,1.06Z"/>
      <path class="cls-6" d="M106.02,105.62c-.38,1.3-1.22,2.14-2.52,2.51.42-1.26,1.5-1.86,2.52-2.51Z"/>
      <path class="cls-6" d="M348.63,71.72c-1.29-.34-2.46-.92-3.51-1.75,1.42.08,2.71.43,3.51,1.75Z"/>
      <path class="cls-6" d="M157.84,95.2c.81-1.02,1.98-1.4,3.16-1.75-.7,1.21-1.89,1.56-3.16,1.75Z"/>
      <path class="cls-6" d="M380.84,92.03c-1.12-.45-2.11-1.09-2.8-2.1,1.31.2,2.29.85,2.8,2.1Z"/>
      <path class="cls-6" d="M129.12,87.12c-.57.93-1.43,1.46-2.46,1.75.37-1.21,1.32-1.62,2.46-1.75Z"/>
      <path class="cls-6" d="M166.94,65.77c-.93.75-1.93,1.33-3.16,1.41.81-1.02,1.9-1.4,3.16-1.41Z"/>
      <path class="cls-6" d="M308.73,55.97c-1.26-.1-2.54-.17-3.57-1.06,1.26.11,2.54.18,3.57,1.06Z"/>
      <path class="cls-6" d="M113.37,99.38c-.55.76-1.05,1.59-2.1,1.75.29-1.08.93-1.74,2.1-1.75Z"/>
      <path class="cls-6" d="M345.46,95.19c.95.23,1.88.52,2.46,1.4-1.02-.11-2-.29-2.46-1.4Z"/>
      <path class="cls-6" d="M357.37,102.55c.89.19,1.59.66,2.1,1.4-.97-.07-1.87-.23-2.1-1.4Z"/>
      <path class="cls-6" d="M119.32,94.48c-.43.67-.87,1.32-1.76,1.4.17-.99.78-1.42,1.76-1.4Z"/>
      <path class="cls-6" d="M373.14,86.42c-.8-.19-1.51-.5-1.75-1.4.79.21,1.63.36,1.75,1.4Z"/>
      <path class="cls-6" d="M117.57,95.88c-.43.67-.86,1.32-1.76,1.4.17-.99.78-1.42,1.76-1.4Z"/>
      <path class="cls-6" d="M115.12,97.63c-.09.85-.57,1.3-1.4,1.4.11-.83.61-1.26,1.4-1.4Z"/>
      <path class="cls-6" d="M345.14,69.98c-.73-.12-1.4-.33-1.76-1.06.76.07,1.54.1,1.76,1.06Z"/>
      <path class="cls-6" d="M353.42,100.1c.78.06,1.46.31,1.85,1.05-.82.01-1.53-.17-1.85-1.05Z"/>
      <path class="cls-6" d="M375.94,88.18c-.85.1-1.4-.32-1.75-1.05.85-.09,1.37.36,1.75,1.05Z"/>
      <path class="cls-6" d="M156.09,96.25c.37-.71,1.03-.94,1.76-1.05-.22.96-.99,1.01-1.76,1.05Z"/>
      <path class="cls-6" d="M123.87,90.97c-.3.58-.7,1.03-1.41,1.06.07-.88.65-1.09,1.41-1.06Z"/>
      <path class="cls-6" d="M378.04,89.93c-.71-.02-1.11-.47-1.4-1.05.75-.03,1.34.16,1.4,1.05Z"/>
      <path class="cls-6" d="M126.67,88.87c-.29.59-.69,1.03-1.41,1.05.07-.89.65-1.08,1.41-1.05Z"/>
      <path class="cls-6" d="M131.57,85.37c-.3.58-.69,1.03-1.41,1.05.07-.89.66-1.08,1.41-1.05Z"/>
      <path class="cls-6" d="M122.47,92.02c-.3.57-.69,1.03-1.41,1.05.07-.89.66-1.08,1.41-1.05Z"/>
      <path class="cls-6" d="M382.24,93.08c-.72-.02-1.11-.47-1.4-1.05.76-.04,1.34.17,1.4,1.05Z"/>
      <path class="cls-6" d="M362.97,106.4c.72.02,1.11.47,1.41,1.05-.75.03-1.34-.16-1.41-1.05Z"/>
      <path class="cls-6" d="M364.37,107.45c.72.02,1.11.47,1.41,1.05-.75.03-1.33-.17-1.41-1.05Z"/>
      <path class="cls-6" d="M125.27,89.92c-.3.58-.69,1.03-1.41,1.05.07-.89.65-1.09,1.41-1.05Z"/>
      <path class="cls-6" d="M322.71,84.34c.68,0,1.41-.12,1.76.71-.69.03-1.29-.17-1.76-.71Z"/>
      <path class="cls-6" d="M364.39,80.48c-.61.04-1.15-.06-1.41-.71.62-.06,1.13.09,1.41.71Z"/>
      <path class="cls-6" d="M321.31,83.64c.6-.03,1.15.05,1.41.71-.6.02-1.15-.06-1.41-.71Z"/>
      <path class="cls-6" d="M374.19,87.12c-.51.01-.87-.22-1.05-.7.52-.02,1.01,0,1.05.7Z"/>
      <path class="cls-6" d="M130.17,86.42c-.19.48-.54.71-1.06.7.04-.7.53-.73,1.06-.7Z"/>
      <path class="cls-6" d="M365.77,108.5c.51,0,.87.23,1.06.7-.53.03-1.01-.01-1.06-.7Z"/>
      <path class="cls-6" d="M386.79,96.58c-.52.01-.87-.22-1.06-.7.52-.02,1,.02,1.06.7Z"/>
      <path class="cls-6" d="M154.33,97.37c.15-.54.52-.77,1.06-.78-.03.7-.6.67-1.06.78Z"/>
      <path class="cls-6" d="M356.32,101.85c.51-.01.87.22,1.05.7-.53.03-1.01,0-1.05-.7Z"/>
      <path class="cls-6" d="M120.72,93.43c-.19.48-.54.71-1.06.7.04-.7.52-.74,1.06-.7Z"/>
      <path class="cls-6" d="M355.27,101.14c.51,0,.87.22,1.05.7-.53.03-1.01,0-1.05-.7Z"/>
      <path class="cls-6" d="M133.68,83.97c-.19.48-.55.7-1.06.71.02-.73.54-.72,1.06-.71Z"/>
      <path class="cls-6" d="M370.69,84.67c-.51.01-.87-.22-1.05-.7.52-.02,1.01,0,1.05.7Z"/>
      <path class="cls-6" d="M137.88,81.17c-.19.48-.54.71-1.06.71.05-.69.55-.71,1.06-.71Z"/>
      <path class="cls-6" d="M310.13,56.33c-.49-.05-1.05.17-1.41-.36.49.04,1.04-.14,1.41.36Z"/>
      <path class="cls-6" d="M388.89,98.33c-.47,0-.7-.24-.71-.71.44.03.69.25.71.71Z"/>
      <path class="cls-6" d="M320.27,83.28c.39.01.8-.06,1.05.36-.5,0-1.03.11-1.42-.36.12,0,.24,0,.37,0Z"/>
      <path class="cls-6" d="M376.64,88.87c-.47,0-.7-.23-.7-.7.44.03.7.23.7.7Z"/>
      <path class="cls-6" d="M339.53,67.18c-.39,0-.81.07-1.06-.36.4,0,.81-.07,1.06.36Z"/>
      <path class="cls-6" d="M343.38,68.93c-.39,0-.81.07-1.06-.36.39,0,.81-.06,1.06.36Z"/>
      <path class="cls-6" d="M324.46,85.04c.39,0,.81-.08,1.06.35-.4,0-.81.07-1.06-.35Z"/>
      <path class="cls-6" d="M183.74,82.94c.25-.42.67-.36,1.06-.36-.25.44-.67.35-1.06.36Z"/>
      <path class="cls-6" d="M337.08,66.12c-.3,0-.57-.05-.71-.36.29,0,.57.05.71.36Z"/>
      <path class="cls-6" d="M337.78,66.48c-.3,0-.56-.06-.71-.36.3,0,.57.04.71.36Z"/>
      <path class="cls-6" d="M135.78,82.57c-.15.29-.41.36-.71.36.15-.3.41-.36.71-.36Z"/>
      <path class="cls-6" d="M136.83,81.87c-.14.3-.41.36-.71.36.15-.29.41-.36.71-.36Z"/>
      <path class="cls-6" d="M366.56,81.88c-.32,0-.61-.03-.78-.35.32-.02.59.08.78.35Z"/>
      <path class="cls-6" d="M365.44,81.18c-.3,0-.56-.06-.71-.36.3,0,.56.06.71.36Z"/>
      <path class="cls-6" d="M138.58,80.82c-.15.3-.41.36-.71.36.14-.3.41-.36.71-.36Z"/>
      <path class="cls-6" d="M369.27,111.29c.3,0,.56.06.71.36-.3,0-.56-.07-.71-.36Z"/>
      <path class="cls-6" d="M347.92,96.59c.3,0,.56.06.71.35-.3.01-.58-.03-.71-.35Z"/>
      <path class="cls-6" d="M107.07,104.98c-.16.33-.45.36-.76.35.18-.27.44-.38.76-.35Z"/>
      <path class="cls-6" d="M349.33,72.07c-.3,0-.56-.05-.7-.35.3-.01.57.04.7.35Z"/>
      <path class="cls-6" d="M158.53,69.62c-.14.31-.41.36-.71.35.14-.3.41-.36.71-.35Z"/>
      <path class="cls-6" d="M342.33,68.58c-.3,0-.56-.06-.71-.36.3,0,.57.04.71.36Z"/>
      <path class="cls-6" d="M341.63,68.23c-.29,0-.56-.06-.71-.36.3-.01.57.05.71.36Z"/>
      <path class="cls-6" d="M340.93,67.87c-.3,0-.56-.05-.71-.36.3,0,.57.05.71.36Z"/>
      <path class="cls-6" d="M340.23,67.53c-.3,0-.57-.05-.71-.36.29,0,.57.05.71.36Z"/>
      <path class="cls-6" d="M338.48,66.83c-.3,0-.56-.07-.71-.36.3,0,.57.04.71.36Z"/>
      <path class="cls-6" d="M367.52,109.89c.3,0,.56.06.71.36-.3.01-.56-.06-.71-.36Z"/>
      <path class="cls-6" d="M384.34,94.48c-.3,0-.56-.06-.71-.36.3,0,.55.07.71.36Z"/>
      <path class="cls-6" d="M325.51,85.39c.3,0,.57.05.71.36-.3,0-.57-.04-.71-.36Z"/>
      <path class="cls-6" d="M371.39,85.03c-.3,0-.56-.05-.7-.35.3-.01.55.06.7.35Z"/>
      <path class="cls-6" d="M132.63,84.67c-.15.3-.41.36-.71.36.15-.29.41-.37.71-.36Z"/>
      <path class="cls-6" d="M369.29,83.63c-.3,0-.56-.05-.71-.35.3,0,.56.07.71.35Z"/>
      <path class="cls-6" d="M382.94,93.43c-.3,0-.56-.05-.7-.35.3-.01.56.06.7.35Z"/>
      <path class="cls-6" d="M134.73,83.27c-.15.3-.41.36-.71.36.15-.3.41-.36.71-.36Z"/>
      <path class="cls-6" d="M320.27,83.28c-.12,0-.24,0-.37,0-.12-.12-.23-.24-.35-.35.29,0,.56.05.71.35Z"/>
      <path class="cls-6" d="M183.04,83.36c.11-.36.4-.41.71-.42-.14.31-.43.35-.71.42Z"/>
      <path class="cls-6" d="M155.38,96.6c.15-.29.41-.36.71-.36-.14.31-.41.36-.71.36Z"/>
      <path class="cls-6" d="M368.24,82.93c-.32,0-.6-.06-.7-.43.23.14.47.28.7.43Z"/>
      <path class="cls-6" d="M388.19,97.63c-.3,0-.56-.06-.71-.36.3,0,.56.07.71.36Z"/>
      <path class="cls-6" d="M115.82,97.28c-.14.31-.41.36-.71.35.15-.29.4-.37.71-.35Z"/>
      <path class="cls-6" d="M368.22,110.24c.12.12.24.24.36.36-.12-.12-.24-.24-.36-.36Z"/>
      <path class="cls-6" d="M366.82,109.19c.12.12.24.24.36.36-.12-.12-.24-.24-.36-.36Z"/>
      <path class="cls-6" d="M369.97,111.64c.12.15.24.29.36.44-.12-.15-.24-.29-.36-.44Z"/>
      <path class="cls-6" d="M368.92,110.94c.12.12.24.24.36.36-.12-.12-.24-.24-.36-.36Z"/>
      <path class="cls-6" d="M107.42,104.63c-.12.12-.24.24-.35.35.12-.12.24-.24.35-.35Z"/>
      <path class="cls-6" d="M385.04,95.18c-.12-.12-.24-.24-.36-.36.12.12.24.24.36.36Z"/>
      <path class="cls-6" d="M107.77,104.28c-.12.12-.24.24-.35.35.12-.12.24-.24.35-.35Z"/>
      <path class="cls-6" d="M368.57,110.59c.12.12.24.24.36.36-.12-.12-.24-.24-.36-.36Z"/>
      <path class="cls-6" d="M385.74,95.88c-.12-.12-.24-.24-.36-.36.12.12.24.24.36.36Z"/>
      <path class="cls-6" d="M136.13,82.22c-.12.12-.24.24-.36.36.12-.12.24-.24.36-.36Z"/>
      <path class="cls-6" d="M368.59,83.28c-.12-.12-.24-.24-.36-.35.12.12.24.24.36.35Z"/>
      <path class="cls-6" d="M365.79,81.53c-.12-.12-.24-.24-.36-.36.12.12.24.24.36.36Z"/>
      <path class="cls-6" d="M369.64,83.98c-.12-.12-.24-.24-.35-.35.12.12.24.24.35.35Z"/>
      <path class="cls-6" d="M348.61,96.94c.12.15.24.29.35.44-.12-.15-.24-.29-.35-.44Z"/>
      <path class="cls-6" d="M387.14,96.93c-.12-.12-.24-.24-.35-.35.12.12.24.24.35.35Z"/>
      <path class="cls-6" d="M135.08,82.92c-.12.12-.24.24-.36.36.12-.12.24-.24.36-.36Z"/>
      <path class="cls-6" d="M364.74,80.83c-.12-.12-.24-.24-.36-.36.12.12.24.24.36.36Z"/>
      <path class="cls-6" d="M134.03,83.62c-.12.12-.24.24-.36.36.12-.12.24-.24.36-.36Z"/>
      <path class="cls-6" d="M119.67,94.13c-.12.12-.24.24-.35.35.12-.12.24-.24.35-.35Z"/>
      <path class="cls-6" d="M389.31,98.68c-.14-.12-.28-.23-.42-.35.14.12.28.23.42.35Z"/>
      <path class="cls-6" d="M108.12,103.93c-.12.12-.24.24-.35.35.12-.12.23-.24.35-.35Z"/>
      <path class="cls-6" d="M383.29,93.78c-.12-.12-.24-.24-.35-.35.12.12.24.24.35.35Z"/>
      <path class="cls-6" d="M367.17,109.54c.12.12.24.24.36.36-.12-.12-.24-.24-.36-.36Z"/>
      <path class="cls-6" d="M113.72,99.03c-.12.12-.23.23-.35.35.12-.12.23-.23.35-.35Z"/>
      <path class="cls-6" d="M384.69,94.83c-.12-.12-.24-.24-.36-.36.12.12.24.24.36.36Z"/>
      <path class="cls-6" d="M111.27,101.13c-.12.12-.23.23-.35.35.12-.12.23-.23.35-.35Z"/>
      <path class="cls-6" d="M131.93,85.02c-.12.12-.24.24-.36.36.12-.12.24-.24.36-.36Z"/>
      <path class="cls-6" d="M121.07,93.08c-.12.12-.24.24-.35.35.12-.12.24-.24.35-.35Z"/>
      <path class="cls-6" d="M385.39,95.53c-.12-.12-.24-.24-.36-.36.12.12.24.24.36.36Z"/>
      <path class="cls-6" d="M383.64,94.13c-.12-.12-.24-.24-.36-.36.12.12.24.24.36.36Z"/>
      <path class="cls-6" d="M387.49,97.28c-.12-.12-.24-.24-.36-.36.12.12.24.24.36.36Z"/>
      <path class="cls-6" d="M335.67,89.59c-1.63-.46-3.02-1.43-4.55-2.11.04-.61.36-.9.96-1.05,1.77-.45,2.45-1.29,1.71-2.79-.93-1.9-.19-3.65-.05-5.44.09-1.23.26-2.37-.26-3.57-.63-1.45-.31-1.82,1.31-1.85.52,0,1.09.12,1.57-.04,1.55-.5,2.72-.53,2.96,1.56.07.66.79.95,1.51.94.98-.01,1.32.72,1.42,1.48.09.74-.5,1.19-1.16,1.3-1.43.23-1.62,1.11-1.58,2.37.08,2.78.11,5.58-.31,8.35-.11.73-.47,1.31-.75,1.94-.11-.01-.21-.02-.32-.03-.53-1.02-1.22-1.67-2.45-1.06Z"/>
      <path class="cls-6" d="M335.67,89.59c1.23-.61,1.92.04,2.45,1.06-.96-.02-1.75-.44-2.45-1.06Z"/>
    </g>
    <g>
      <path class="cls-5" d="M82.09,167.19c14.23,0,28.46.02,42.69-.03,1.78,0,2.66.62,3.39,2.28,5.28,11.95,10.67,23.85,16.04,35.75,7.43,16.48,14.86,32.96,22.31,49.43,5.87,12.96,11.77,25.91,17.66,38.86,4.32,9.5,8.64,19,12.98,28.5.58,1.26.5,2.43-.04,3.7-3.8,8.96-7.56,17.95-11.34,26.92-.22.52-.27,1.29-.98,1.3-.78.02-.94-.78-1.2-1.34-4.39-9.72-8.77-19.46-13.16-29.18-5.78-12.81-11.54-25.63-17.34-38.43-6.64-14.66-13.31-29.31-19.95-43.96-6.23-13.76-12.45-27.52-18.66-41.29-.82-1.81-1.62-3.62-2.36-5.46-.55-1.38-1.51-1.93-2.98-1.93-10.68.03-21.35.01-32.03.02-1.88,0-2.12.36-1.36,2.07,3.47,7.78,6.96,15.54,10.45,23.3,7.95,17.65,15.9,35.3,23.87,52.94,6.46,14.29,12.98,28.56,19.45,42.85,6.52,14.39,13.02,28.8,19.54,43.19,6.35,14.02,12.71,28.04,19.06,42.06,2.65,5.84,5.29,11.69,7.96,17.52.32.69.39,1.85,1.37,1.8.93-.04,1.02-1.17,1.32-1.89,4.16-9.76,8.29-19.54,12.44-29.31,8.28-19.48,16.56-38.96,24.85-58.43,9.63-22.64,19.37-45.24,28.81-67.96,1.79-4.3,4.81-7.16,8.1-10.04,11.49-10.06,22.95-20.16,34.41-30.25,12.43-10.94,24.86-21.88,37.28-32.83,8.48-7.48,16.95-14.99,25.42-22.48.22-.19.43-.4.64-.6,1.84-1.78,1.82-2.11.09-3.95-3.47-3.7-6.92-7.42-10.37-11.14-.43-.47-.97-.95-.69-1.67.26-.67.97-.6,1.51-.62,7.35-.24,14.66-1.01,21.98-1.55,8.43-.63,16.84-1.44,25.25-2.2,1.71-.16,2.21.13,1.92,1.88-.64,4.03-1.44,8.03-2.19,12.04-1.6,8.59-3.21,17.17-4.8,25.76-.55,2.98-1.04,5.97-1.61,8.94-.1.53,0,1.29-.74,1.45-.68.15-1.03-.47-1.4-.89-3.25-3.58-6.48-7.18-9.73-10.77-2.31-2.55-2.34-2.57-4.92-.28-8.33,7.38-16.64,14.8-24.98,22.17-11.79,10.43-23.61,20.83-35.4,31.25-10.49,9.26-20.94,18.57-31.47,27.79-1.51,1.32-1.63,2.45-.84,4.23,9.86,22.23,19.63,44.49,29.45,66.74,10.86,24.59,21.75,49.16,32.63,73.75,1.44,3.25,2.83,6.52,4.26,9.78.22.51.31,1.25,1.05,1.22.69-.03.87-.72,1.1-1.23,3.55-7.93,7.05-15.88,10.64-23.8,5.3-11.68,10.67-23.33,15.98-35.01,5.75-12.63,11.45-25.28,17.2-37.92,5.24-11.52,10.51-23.02,15.74-34.54,6.68-14.71,13.33-29.43,20.01-44.13,1.25-2.76,2.59-5.48,3.9-8.22.21-.45.3-1.13.99-1.05.76.09.53.81.59,1.27,1.01,7.28,1.69,14.58,2.3,21.9.72,8.62.38,17.26.48,25.89.02,1.91-.85,3.5-1.59,5.13-14.36,31.52-28.73,63.03-43.11,94.55-7.33,16.07-14.67,32.15-21.99,48.23-3.7,8.12-7.35,16.26-11.08,24.36-1.76,3.84-4.73,6.32-8.89,7.23-5.47,1.19-11-1.39-13.55-6.65-2.8-5.77-5.31-11.68-7.91-17.54-5.85-13.16-11.7-26.32-17.53-39.49-7.41-16.74-14.79-33.5-22.2-50.25-6.58-14.88-13.18-29.75-19.77-44.62-.83-1.87-1.63-3.74-2.49-5.59-.26-.56-.38-1.4-1.12-1.43-.89-.04-.98.9-1.23,1.5-3.12,7.35-6.19,14.73-9.32,22.07-6.72,15.77-13.45,31.53-20.19,47.29-8.05,18.81-16.11,37.62-24.18,56.43-4.28,9.97-8.6,19.91-12.84,29.89-1.48,3.49-3.69,6.22-7.26,7.64-6.34,2.52-12.84.07-16-6.07-3.6-7-6.73-14.23-9.99-21.4-5.67-12.47-11.35-24.94-17.01-37.43-7.48-16.52-14.91-33.06-22.4-49.58-6.91-15.24-13.91-30.45-20.81-45.69-6.38-14.07-12.68-28.18-19.03-42.27-6.28-13.93-12.57-27.85-18.85-41.78-6.28-13.93-12.55-27.86-18.83-41.78-.74-1.65-1.61-3.24-2.31-4.91-.61-1.45-.26-2.01,1.28-2,8.22.02,16.45.11,24.67.14,6.3.02,12.6,0,18.9,0,0-.05,0-.11,0-.16ZM160.28,245.02c0,.29-.07.55-.35.7-.41,0-.81.01-1.22.03-.59.02-1.4.78-1.68,0-.22-.62.54-1.32,1.09-1.83.2-.18.52-.23.79-.3,1.07-.28,1.35-.9.62-1.75-.54-.63-.7-1.32-.66-2.1-.41-.88-1.67-.96-1.77-2.22-.34-4.05-2.54-7.36-4.52-10.74-.65-2.81-2.62-4.74-4.47-6.76-.28-.3-.97-.62-.53-1.08.5-.52.73.2,1.02.49.27.27.52.8.96.46.43-.33.04-.72-.18-1.05-1.29-1.89-3.17-3.48-3.1-6.07-.02-.23.06-.55-.07-.68-1.31-1.44-2.91-2.73-2.29-5.04.02-.09-.08-.22-.14-.31-1.1-1.49-1.52-3.32-2.33-4.96-.62-1.25-1.83-2.24-1.99-3.56-.24-1.87-.72-3.49-2.11-4.81-.36-.34.06-1.36-.9-1.2-.7.12-1.16.56-1.47,1.32-.32.78-.96,1.44-1.53,2.1-.34.4-.83.46-1.23.04-.41-.43-.34-.84.17-1.15.52-.31.85-.8,1.12-1.31.19-.35,1.25-.57.34-1.11-.51-.31-.29-1.89-1.67-.9-.89.64-1.62-.38-2.16-.96-.52-.56.06-1.11.55-1.41.61-.37.46-.78.36-1.33-.11-.6-.31-1.39.35-1.77.78-.45,1.05.48,1.52.81.41.29.76.93,1.32.5.5-.38.22-.98-.04-1.43-1.09-1.85-1.37-4.02-2.4-5.88-1.68-3.03-2.29-6.55-4.39-9.37-.62-.83-1.42-1.57-2.34-.31-.62.85-.81.7-1.17-.22-.43-1.09-1.56-.76-2.46-.8-.67-.04-.97.3-.94.95.03.74-.69.87-1.02,1.32-.48.63-1.02,1.35-1.8.55-.68-.71-.31-1.38.48-1.84.24-.14.54-.35.37-.68-.08-.15-.36-.24-.56-.29-2.74-.64-5.54-.66-8.31-.68-9.3-.08-18.6-.03-27.9-.03-13.53,0-27.05,0-40.58.01-.91,0-2.14-.46-2.65.27-.52.74.74,1.42.96,2.25.03.11.08.22.12.33,1.02,3.16,2.62,6.06,3.93,9.09.71,1.65,1.76,1.64,2.96,1.42,1.56-.29,2.64.65,3.89,1.17.41.17.48.64.42,1.07-.08.54-.43.82-.96.84-1.57.06-.93.66-.35,1.3,1.52,1.68,1.45,1.93-.66,2.59-.82.26-1.65.86-.93,1.56,1.08,1.06,1.24,2.45,1.82,3.66,1.34,2.81,2.58,5.67,3.83,8.51,1.11,2.52,1.37,2.97,3.92,2.13.3-.1.55-.59.89-.22.35.38-.02.76-.17,1.11-.36.83-1.11.72-1.8.72-.82,0-.96.19-.59,1.03.45,1.04,1.44,1.9,1.61,2.89.68,4.05,3.36,7.19,4.67,10.94.08.23.44.36.67.54.01.85-.23,1.78,1.18,1.82.73.02.65.77.51,1.24-.21.71.07,1.29.15,1.93.15,1.21,1.23,1.91,1.32,3.06.14.62.22,1.26.7,1.75.24.58.47,1.17.71,1.75,1.13,1.34.99,3.63,3.15,4.2.1.85-.35,1.86.33,2.53,1.2,1.2,1.83,2.62,1.93,4.74.68-.94,1.08-1.54,1.54-2.1.24-.29.62-.8.98-.33.7.91,2.03,1.6,1.38,3.12-.31.73-.05.96.68,1.21,1.08.38,1.16,1.34.28,1.94q-2.4,1.64-.82,3.94c.26.38.61.71.85,1.1.23.38.7.83.35,1.26-.86,1.06-.04,1.67.62,2.11.56.37.64.75.63,1.29,0,.5.09,1,.61,1.15.86.24.81.87.79,1.52-.02.59.07,1.14.32,1.69.96,2.11,2.23,4.15,2.72,6.37.48,2.17,3.13,3.36,2.43,5.94-.05.19.24.52.43.73.92,1,1.17,2.58,2.79,2.99.53.14.21.93.33,1.38.29,1.07-.14,2.46,1.48,3.05,1.01.37,1.41,1.97,1,2.53-.65.88-.37,1.29-.13,2.1.33,1.14.84,2.24,1.44,3.13,1.07,1.57,1,3.91,3.14,4.79.47.19.55.72.14,1.17-.26.29-.34.6-.05.93,1.07,1.22,1.33,2.81,1.92,4.25.58,1.44.85,3.12,2.05,4.16.88.76,2.16,1.05,1.13,2.58-.17.25.08.61.37.69.67.18.84.62.99,1.25.14.58.36,1.41,1.19,1.25.74-.14.76-.92.82-1.57.18-2.01.83-2.5,2.83-2.12,2.08.4,2.07.4,2.1-1.73,0-.79.37-1.43,1.24-1.31.6.09,1.47.53,1.07,1.27-.86,1.59-.29,1.75,1.13,1.44.18-.04.47.08.6.22,1.04,1.22.42,3.32-1.13,3.93-1.27.5-1.48,1.23-.34,1.95,1.27.8,1.77,1.92,2.13,3.23.14.52.8,1.01.16,1.56-.5.42-1.03.7-1.71.14-.59-.49-.92.17-1.28.5-.2.19-.48.43-.26.74.28.4.75.24,1.13.23.72-.02,1.37.13,2.02.45.97.48,1.58.31,1.54-.94-.02-.56.11-1.13.77-1.17.76-.05,1.21.48,1.28,1.17.09.89.36,1.7.7,2.51.75,1.75,3.08,2.23,4.42.8.88-.94,1.44-.52,1.92.22.37.57.43,1.33.79,1.91.48.78,1.06,1.68,2.2.99,1.92-1.18,1.9-1.2,2.98.73.26.47.4,1.3,1.19.9.81-.42.63-1.11.19-1.79-.66-1.02-1.56-1.87-2.26-2.82-.79-1.08-1.17-.45-1.81.28-.14-1.34-.3-2.36.14-3.37.5-1.14.86-2.17-1.11-1.74-.51.11-.76-.21-.86-.66-.22-1.04-.83-2.21.81-2.71.32-.1.56-.3.37-.63-.74-1.31-1.51-2.58-1.31-4.19.04-.37-.5-.44-.82-.54-1.43-.42-1.75-1.24-1.24-2.64.22-.59.89-1.52-.15-1.99-.86-.38-1.78-.3-2.55.57.44.27.82.42,1.1.69.31.3.09.65-.09.95-.2.36-.6.56-.86.29-.65-.69-1.52-1.33-1.12-2.52.63-1.84-.04-3.31-1.84-4.03-.46-.18-.81-.48-1.03-.9-.52-.96-1.31-1.48-2.38-1.51-1.05-.04-1.2-.7-1.19-1.55,0-.55.28-1,.45-1.49.25-.71.78-1.52-.79-1.27-.97.16-1.91-.44-2.05-1.49-.18-1.29-1.17-1.86-2.03-1.74-1.31.18-1.78-.75-2.6-1.24-.87-.52-.64-1.2-.42-1.98.28-.97.81-.75,1.47-.53.48.16.89.06,1.11-.53.36-.96,1.08-1.02,1.81-.49.68.5,1.09.2,1.43-.34.36-.57.35-1.15-.34-1.46-.8-.36-.88-.99-.83-1.73.05-.68,0-1.28-.9-1.4-.43-.06-.51-.44-.44-.81.11-.52.47-.38.81-.27.44.14.82.04,1.06-.37.26-.46.09-.77-.39-.94-.46-.17-.38-.49-.25-.85.31-.82-.16-1.48-.53-2.12-1.04-1.78-1.75-3.77-3.39-5.18-.37-.32-.46-.85-.31-1.45.25-1.01-.34-1.49-1.34-1.52-1.67-.04-3.41.09-4.48-1.64-.11-.18-.37-.41-.55-.4-2.23.16-1.9-1.39-1.9-2.76,0-.36.19-.84-.42-1.04-.52.57,0,1.93-1.32,1.89-1.24-.03-1.56.79-1.75,1.77-.96.81-1.8.81-2.3-.46-.38-.97.4-1.35,1.06-1.72,1.78-.98,2.97-2.36,2.6-4.49-.39-2.24.06-2.66,2.7-3.47.41-.13,1.2.09,1.07-.52-.16-.75-.62-1.53-1.17-2.06-.39-.37-.75.3-1.05.63-.27.31-.38,1.06-.99.6-1.67-1.25-2.02-3.74-.71-5.55,1.06-1.46,1.2-2.83.19-4.32-.08-1-1.34-1.44-1.29-2.39.08-1.43-.73-1.88-1.86-2.16-.05-.51.24-1.27-.19-1.5-1.54-.81-1.11-3.14-2.96-3.68-.33-.1-.29-.59-.36-.93-.17-.74.52-1.94-.49-2.12-.83-.15-.64,1.16-1.03,1.76-.25.39-.54.9-1.06.72-.72-.25-1.04-.93-1.18-1.63-.11-.56.35-.61.78-.68,1.35-.23,1.1-1.06.47-1.71-.65-.67-.64-1.16-.3-1.99.66-1.64.6-3.36.03-5.04-.5-.83-1.24-1.47-1.43-2.54-.51-2.9-1.71-5.51-3.74-7.68-1.17-1.26-2.22-2.54-1.92-4.43.03-.19-.1-.58-.2-.59-2.23-.33-1.78-1.82-1.48-3.28.11-.53-.15-1.02-.37-1.5-.9-2.03-1.6-4.13-2.63-6.14-.87-1.72-1.39-3.58-2.85-4.96-.74-.71-.72-1.68.21-1.95,1.11-.33,2.42-.55,3.5.33.51.41,1.02.88,1.67.86,1.64-.04,3.21.53,4.85.41,4.18-.33,8.36-.44,12.55-.37,1.03.02,2.31.43,2.53-1.28.02-.17.46-.43.69-.42,1.28.08,2.57-.37,3.75-.26,1.13.1,2.46-.13,3.86.71-.62.11-.89.19-1.16.2-1.52.01-3.03,0-4.55.02-.32,0-.8-.1-.85.37-.05.54.43.61.84.66.23.03.47.01.7.01,2.66,0,5.31-.04,7.96.02,1.22.03,2.77.3,3.11,1.44.73,2.47,2.01,4.65,3.01,6.96.7,1.61,1.81,1.7,3.08.56.86-.77,1.49-2.71,3.2-1,.13.13.59.04.83-.08.5-.25.99-.83,1.35.12.28.73-.12,1.25-.66,1.63-.44.32-1.15.21-1.47.97,1.13.52,2.12,1.57,1.76,2.62-.31.9-1.58,1.92-2.54,2.04-2.06.26-1.47,1.32-1.13,2.44.82,2.73,2.5,5.13,3.38,7.78,1.25,3.8,3.77,7.01,4.73,10.9-.03.52.37.83.59,1.22.59,1.02,1.15,1.79,1.79.02.19-.54.62-.64,1.12-.3,1.3.9,1.79,2.52,1.39,4.04-.35,1.33-.09,2.76.97,3.58.66.51,1.64.51,1.49,1.7-.11.91.39,2.02-.3,2.69-.93.92-.5,1.63-.05,2.45,1.28,2.78,2.56,5.56,3.82,8.36.36.8.84,1.39,1.78,1.45-.08.39-.11.8-.23,1.18-.36,1.16.34,1.88,1.21,2.19,1,.36,1.16-.68,1.44-1.34.18-.42.26-.88.39-1.33.5-.04,1.13.17,1.4-.43.63-1.39,1.8-1.44,3.05-1.32.54.05,1.03-.1,1.5-.35.97.09,1.8-.07,2.49-.89.86-1.02,1.86-1.32,2.99-.3.33.3,1.18.61,1.2.33.19-2.15,1.98-2.03,3.33-2.55.05-.02.09-.07.14-.1h.7c-.03.75.14,1.35,1.05,1.4,0,.4,0,.81,0,1.21,0,1.04.72,1.59,1.53,1.39.76-.19.92-1.01.63-1.87-.64-1.92-1.68-2.8-3.57-2.83,0-.23,0-.47,0-.7.54-.08,1.24.26,1.58-.29.34-.56-.11-1.05-.53-1.46-.56-.53-.63-.1-.7.35ZM194.24,321.69c-.4-1.05.85-2.1,0-3.15-.05-.75-.05-1.64-1.03-1.7-.9-.05-.62-.56-.78-1.08-.33-1.04-.28-2.4-1.69-2.82-.12-.23-.23-.47-.35-.7.61-2.28.45-2.67-1.4-3.5,0-.35,0-.7,0-1.05.63-1.76-1.95-1.98-1.75-3.6.03-.27-.51-.77-1.01-.82-.19-.02-.43.14-.61.26-.64.44-.94.09-1.16-.48-.34-.88-.63-1.84-.28-2.7.58-1.4-.06-2.24-.92-3.21-.9-1-1.08-.47-1.27.4h-1.05c-.54-.78-.28-1.39.38-1.97.74-.65.99-1.31-.08-1.91-.89-.5-1-1.17-.85-2.2.12-.87.38-2.09-.84-2.67-.03-.77-.19-1.49-.7-2.1.31-2.17.02-2.71-1.96-3.27-.61-.17-.46-.58-.49-.94-.09-1.38-.73-1.06-1.63-.67-2.02.87-4.42.68-6.18,2.38-.51.49-1.9-.49-2.25.61-.4,1.25,1.26,1.1,1.65,1.89v.7c-.12,1.05-.23,2.1-.35,3.15-.55,1.45-1.79,2.16-3.06,2.81-.48.25-1.14.56-.99,1.03.75,2.43-.91,1.44-1.9,1.41-1.71-.07-1.39,1.18-1.39,2.18,0,1.4.89,1.75,2.09,1.67,0,.47,0,.93,0,1.4-.34.24-.33.56-.24.93.85,3.53,3.31,6.36,4.26,9.86.34,1.26,1.04.3,1.58.06.29,0,.67-.1.86.04,1.59,1.15,2.68.45,3.59-.92.3-.45.58-.49.99-.17.44.35,1.03.58,1.39.06.39-.56-.16-.98-.58-1.27-.48-.34-.78-.71-.56-1.31.23-.61.76-.64,1.31-.64.47,0,.93,0,1.4,0,.14.89.67,1.59,1.09,2.36.63,1.13-.31,2.66-1.54,2.43-1.37-.25-1.52.51-1.13,1.33.42.89.31,2.03,1.45,2.65.91.5.64,1.45-.31,1.63-1.18.23-1.39.87-1.31,1.85-.12.72-.35,1.38-1.05,1.75-.8-.5-1.44-1.18-1.98-1.94-.28-.4.02-1.43-.93-1.07-.83.31-.79,1.22-.42,1.8.77,1.2,1.09,2.58,1.75,3.78.43.79.47,1.97,1.58,2.33.01.45.24.69.7.7-.09.83.13,1.61.34,2.4.08.29.32.75.41.65.83-1.02,2.1.61,2.88-.52.16-.23.5-.45.73-.19.16.17.19.56.12.81-.15.56-.45,1.07-.59,1.63-.08.36-.17.86.33,1.06.47.18.78-.13.97-.51.18-.36.29-.76.46-1.13.34-.77.91-.8,1.3-.17.71,1.14,1.63,1.91,2.91,2.33.67.22.68.89.63,1.48-.05.72.13,1.31.88,1.49.89.2,1.41.75,1.76,1.53.2.45.49.85,1.07.53.69-.38.33-.9.08-1.34-.17-.3-.46-.52-.65-.82-.26-.41-.86-.88-.41-1.35.46-.48.89.06,1.33.35,1.32.89,2.42.3,2.98-1.18.47-1.23,1.04-2.31.35-3.64-.17-.34.26-.58.65-.63,1.32.87,1.16-.7,1.75-1.05.05-.5-.08-1.27.19-1.47,1.24-.91.81-1.98.51-3.08,0-.23,0-.47,0-.7.6-.36-.07-.85.13-1.25.21-.42.85-.84.17-1.31-.58-.4-.79.6-1.35.46ZM160.28,254.12c-.71.03-.71.54-.7,1.05v.35c-.74-1.25-2.42-1.16-3.25-2.27-.26-.35-.61-.67-1-.39-.53.38-.18.81.14,1.16.7.76,1.42,1.5,1.66,2.55-.38,1.41-1.65,1.89-2.73,2.51-1.06.6-1.43,1.3-.77,2.39-.12.58-.23,1.17-.35,1.75-2.77.29-4.49,1.54-4.29,4.61.02.32-.17.66-.27,1-1.14.07-1.45.45-1.02,1.67,1.3,3.7,3.26,7.09,4.63,10.75.23.61.61.96,1.3.88,1.14-.71,2.13-.71,3.2.31.45.43,1.55,1.34,1.97.07.6-1.82,1.69-1.22,2.81-.92.45.12.87.31,1.32.44.45.13,1.05.3,1.3-.1.35-.57-.42-.66-.66-1-.47-.66-1.51-1.23-.97-2.19.47-.84,1.23-1.54,2.15-1.98.91-.44,1.16.55,1.76.79.54.21,1.04.55,1.59.68.75.17,1.32-.19,1.25-1.01-.09-.99-.38-1.9-1.48-2.35-.85-.34-1.59-.77-2.25.29-.24.39-.72.32-1.12.33-.37-.96-.3-1.51.84-2.09,1.76-.88,3.36-2.16,3.01-4.56,1.95-.88,2.06-1.28.71-2.68-.39-.41-.24-.8-.17-1.27.29-2.2-.24-3.17-1.94-3.75,0-.72.07-1.45-.35-2.1.68-2.68-.72-4.59-3.41-4.53-1,.02-1.92-.34-2.89-.37ZM185.35,349.24c.14-.08.35-.13.4-.24.15-.37-.05-.69-.3-.94-1.36-1.36-1.74-3.25-2.65-4.86-.2-.35-.27-.79-.53-1.07-.39-.44-.79-1.15-1.54-.44-.69.64-.52,1.22.13,1.76.43.36.97.54,1.15,1.22.45,1.74,2.28,2.58,2.91,4.23.05.14.27.21.44.34ZM120.26,202.38c-.25,0-.45.07-.5.35-.05.25.04.46.3.53.34.09.56-.07.59-.41.02-.24-.11-.43-.39-.47ZM119.18,200.96c-.26.02-.48.15-.41.4.05.18.26.4.45.45.25.07.41-.16.4-.41-.01-.25-.18-.4-.43-.44ZM167.89,313.43c-.04.1-.08.19-.13.29.1.04.22.14.29.11.07-.03.09-.18.13-.28-.1-.04-.19-.08-.29-.12Z"/>
      <path class="cls-5" d="M128.08,227.51c-.97-3.89-3.48-7.09-4.73-10.9-.87-2.65-2.56-5.05-3.38-7.78-.34-1.12-.93-2.18,1.13-2.44.95-.12,2.22-1.15,2.54-2.04.37-1.05-.63-2.1-1.76-2.62.32-.76,1.03-.66,1.47-.97.54-.38.94-.9.66-1.63-.36-.95-.85-.37-1.35-.12-.24.12-.7.21-.83.08-1.71-1.72-2.35.23-3.2,1-1.27,1.14-2.39,1.06-3.08-.56-1-2.32-2.28-4.5-3.01-6.96-.34-1.15-1.89-1.42-3.11-1.44-2.65-.06-5.31-.02-7.96-.02-.23,0-.47.01-.7-.01-.41-.05-.89-.12-.84-.66.05-.47.53-.36.85-.37,1.52-.02,3.03,0,4.55-.02.27,0,.54-.09,1.16-.2-1.4-.84-2.73-.61-3.86-.71-1.18-.11-2.47.34-3.75.26-.23-.01-.67.24-.69.42-.23,1.7-1.5,1.29-2.53,1.28-4.19-.07-8.38.05-12.55.37-1.65.13-3.22-.45-4.85-.41-.65.02-1.17-.45-1.67-.86-1.07-.88-2.39-.65-3.5-.33-.92.27-.95,1.25-.21,1.95,1.46,1.39,1.98,3.25,2.85,4.96,1.02,2.01,1.72,4.11,2.63,6.14.21.48.48.97.37,1.5-.3,1.46-.76,2.95,1.48,3.28.1.01.23.4.2.59-.29,1.89.75,3.17,1.92,4.43,2.02,2.17,3.23,4.79,3.74,7.68.19,1.07.93,1.71,1.43,2.54-1.96.79-2.8,3.15-5.02,3.6-.21.04-.42.39-.52.64-.18.44-.28.99-.88.86-.46-.1-.83-.49-.85-1-.03-.55.18-1.06.76-1.24.5-.15.98-.21,1.24-.79.76-1.67-.36-2.23-1.56-2.65-.92-.32-1.57-.78-1.02-1.74,1.1-1.94.12-3.32-1.06-4.66-.68-.77-1.42-1.18-1.94.18-.2.52-.56.54-.98.34-.98-.46-2.1-.69-2.6-1.86-.42-.98-.99-1.43-1.91-.4-.45.5-1.05.3-1.63.1-.72-.24-1.83-.07-1.73.55.25,1.57-.66,1.4-1.58,1.48-.2.02-.49.21-.54.38-.2.72.86,2.84-1.39,1.17-.02-.01-.34.29-.43.48-.46,1.03-1.24,1.94-1.21,3.15-.23-.18-.59-.31-.67-.54-1.31-3.74-3.99-6.89-4.67-10.94-.17-.99-1.16-1.85-1.61-2.89-.37-.85-.23-1.03.59-1.03.69,0,1.44.11,1.8-.72.16-.36.52-.74.17-1.11-.34-.36-.59.12-.89.22-2.55.84-2.81.39-3.92-2.13-1.25-2.84-2.49-5.71-3.83-8.51-.58-1.21-.73-2.6-1.82-3.66-.72-.7.11-1.3.93-1.56,2.11-.66,2.17-.91.66-2.59-.58-.64-1.22-1.25.35-1.3.53-.02.88-.3.96-.84.07-.43,0-.89-.42-1.07-1.25-.52-2.33-1.47-3.89-1.17-1.2.22-2.24.23-2.96-1.42-1.31-3.03-2.9-5.93-3.93-9.09-.04-.11-.09-.22-.12-.33-.22-.82-1.48-1.5-.96-2.25.51-.73,1.74-.26,2.65-.27,13.53-.02,27.05-.01,40.58-.01,9.3,0,18.6-.05,27.9.03,2.77.02,5.58.05,8.31.68.2.05.48.13.56.29.17.33-.13.54-.37.68-.79.46-1.17,1.13-.48,1.84.78.8,1.33.09,1.8-.55.33-.44,1.05-.58,1.02-1.32-.03-.65.28-.98.94-.95.9.05,2.03-.29,2.46.8.37.93.55,1.07,1.17.22.92-1.26,1.73-.53,2.34.31,2.09,2.82,2.7,6.35,4.39,9.37,1.03,1.86,1.32,4.03,2.4,5.88.27.46.54,1.05.04,1.43-.55.42-.91-.21-1.32-.5-.47-.34-.74-1.27-1.52-.81-.66.38-.46,1.17-.35,1.77.1.55.25.96-.36,1.33-.49.3-1.07.86-.55,1.41.54.58,1.27,1.6,2.16.96,1.38-1,1.16.59,1.67.9.91.55-.15.76-.34,1.11-.27.52-.6,1-1.12,1.31-.51.31-.58.72-.17,1.15.4.42.89.36,1.23-.04.56-.66,1.21-1.32,1.53-2.1.31-.76.77-1.19,1.47-1.32.96-.17.53.85.9,1.2,1.39,1.31,1.87,2.93,2.11,4.81.17,1.32,1.38,2.32,1.99,3.56.81,1.63,1.23,3.47,2.33,4.96.07.09.17.23.14.31-.62,2.32.99,3.6,2.29,5.04.12.14.05.45.07.68-.36.08-.5,1-1.07.29-.99-1.24-1.57-.39-2.08.45-.67,1.09-1.8,1.77-2.47,2.82-.72,1.11-2.37,1.32-2.7,2.54-.33,1.21-.93,1.84-1.96,2.41-1.63.9-2.86,2.23-3.37,4.1l-.7.35c-.53-.02-.98.08-1.34.55-.62.81-1.49,1.17-2.5,1.2Z"/>
      <path class="cls-5" d="M62.61,221.56c-.03-1.21.74-2.12,1.21-3.15.09-.2.41-.5.43-.48,2.25,1.67,1.19-.46,1.39-1.17.05-.17.34-.36.54-.38.92-.08,1.83.09,1.58-1.48-.1-.62,1.01-.8,1.73-.55.58.2,1.18.4,1.63-.1.92-1.03,1.49-.58,1.91.4.5,1.17,1.62,1.4,2.6,1.86.42.2.78.18.98-.34.52-1.36,1.26-.95,1.94-.18,1.18,1.35,2.16,2.73,1.06,4.66-.55.96.1,1.42,1.02,1.74,1.2.42,2.32.98,1.56,2.65-.27.59-.74.64-1.24.79-.58.17-.78.69-.76,1.24.02.51.4.9.85,1,.61.13.71-.42.88-.86.1-.25.31-.6.52-.64,2.22-.45,3.06-2.81,5.02-3.6.58,1.68.63,3.41-.03,5.04-.33.83-.35,1.32.3,1.99.63.65.89,1.48-.47,1.71-.43.07-.89.12-.78.68.14.7.46,1.38,1.18,1.63.53.18.81-.33,1.06-.72.39-.59.2-1.91,1.03-1.76,1.01.18.33,1.39.49,2.12.08.34.04.83.36.93,1.84.54,1.41,2.87,2.96,3.68.43.22.14.98.19,1.5-1.02-.39-1.75.96-2.78.46-.37,1.4-1.53,1.72-2.71,2.04-.03,0-.03.1-.04.16-.14.83,1.38,4.14,2.16,4.55.78.41,1.41.92,1.98,1.61.73.89,1.73.55,2.49-.01.72-.53,1.12-1.35.68-2.26-.76-1.6-.62-1.84,1.37-1.99,1.01,1.49.88,2.86-.19,4.32-1.32,1.81-.96,4.3.71,5.55.61.45.72-.3.99-.6.3-.33.66-1.01,1.05-.63.55.53,1.01,1.32,1.17,2.06.13.61-.66.4-1.07.52-2.64.81-3.09,1.24-2.7,3.47.37,2.13-.82,3.51-2.6,4.49-.66.36-1.45.75-1.06,1.72.5,1.27,1.34,1.27,2.99,1.05.69-.04.45-.42-.17-.57-.74-.18-.48.37-.54.68-.25,1.18-1.35.63-2.01.92-.75.33-.72-.45-.78-.96-.05-.42-.26-.66-.69-.41-1.07.6-2.24,1.15-1.62,2.75.21.55.48,1.47.05,1.61-1.49.49-1.61,2.38-3.1,2.77-.41.11-.56.37-.53.77.04.44.35.61.72.58.99-.08,1.79.43,2.62.84.38.19,1,.4,1.14.15.72-1.33,2.24-1.84,3.05-2.86,1.16-1.46,1.16-3.67,2.44-5.22.1-.12.1-.33-.56-1.05-.51-1.56-.18-2.39,1.05-2.35,1.33.04.8-1.32,1.32-1.89.61.19.42.68.42,1.04,0,1.37-.33,2.92,1.9,2.76.17-.01.43.22.55.4,1.07,1.73,2.81,1.59,4.48,1.64,1,.03,1.59.5,1.34,1.52-.15.6-.06,1.13.31,1.45,1.64,1.41,2.35,3.4,3.39,5.18.38.65.84,1.3.53,2.12-.13.36-.21.68.25.85.48.17.65.49.39.94-.23.41-.61.51-1.06.37-.34-.1-.71-.25-.81.27-.08.37.01.76.44.81.89.12.95.72.9,1.4-.05.74.03,1.37.83,1.73.69.31.71.89.34,1.46-.34.54-.75.84-1.43.34-.73-.53-1.46-.47-1.81.49-.22.58-.63.68-1.11.53-.66-.22-1.19-.43-1.47.53-.22.78-.46,1.46.42,1.98.82.49,1.3,1.42,2.6,1.24.86-.12,1.85.45,2.03,1.74.15,1.05,1.08,1.64,2.05,1.49,1.57-.25,1.04.57.79,1.27-.17.49-.45.94-.45,1.49-.01.85.14,1.51,1.19,1.55,1.08.04,1.87.56,2.38,1.51.22.41.57.71,1.03.9,1.8.72,2.47,2.19,1.84,4.03-.41,1.19.47,1.83,1.12,2.52.26.28.65.07.86-.29.18-.31.4-.66.09-.95-.28-.26-.66-.42-1.1-.69.76-.86,1.69-.95,2.55-.57,1.05.47.37,1.4.15,1.99-.51,1.39-.18,2.22,1.24,2.64.32.09.86.17.82.54-.2,1.62.57,2.89,1.31,4.19.19.33-.06.53-.37.63-1.63.5-1.03,1.67-.81,2.71.09.44.35.77.86.66,1.97-.43,1.61.6,1.11,1.74-.44,1-.27,2.03-.14,3.37.64-.73,1.02-1.36,1.81-.28.7.95,1.6,1.8,2.26,2.82.44.67.62,1.37-.19,1.79-.79.41-.93-.43-1.19-.9-1.09-1.93-1.06-1.91-2.98-.73-1.14.7-1.72-.21-2.2-.99-.36-.58-.42-1.34-.79-1.91-.48-.74-1.04-1.17-1.92-.22-1.33,1.43-3.67.95-4.42-.8-.34-.8-.61-1.62-.7-2.51-.07-.69-.52-1.22-1.28-1.17-.66.05-.79.62-.77,1.17.04,1.24-.57,1.42-1.54.94-.64-.32-1.3-.47-2.02-.45-.38.01-.85.17-1.13-.23-.22-.31.06-.56.26-.74.36-.33.69-.99,1.28-.5.67.56,1.21.28,1.71-.14.64-.55-.02-1.04-.16-1.56-.36-1.31-.86-2.43-2.13-3.23-1.14-.72-.93-1.45.34-1.95,1.55-.61,2.17-2.71,1.13-3.93-.12-.14-.42-.26-.6-.22-1.41.31-1.98.14-1.13-1.44.4-.74-.47-1.18-1.07-1.27-.86-.12-1.23.51-1.24,1.31-.02,2.13-.01,2.13-2.1,1.73-2-.38-2.66.11-2.83,2.12-.06.65-.07,1.42-.82,1.57-.83.16-1.06-.67-1.19-1.25-.15-.63-.32-1.07-.99-1.25-.29-.08-.54-.44-.37-.69,1.03-1.53-.25-1.82-1.13-2.58-1.21-1.03-1.48-2.71-2.05-4.16-.58-1.45-.85-3.03-1.92-4.25-.29-.33-.21-.65.05-.93.41-.46.33-.98-.14-1.17-2.14-.88-2.07-3.22-3.14-4.79-.6-.88-1.12-1.99-1.44-3.13-.23-.82-.52-1.23.13-2.1.41-.56.01-2.16-1-2.53-1.62-.59-1.19-1.98-1.48-3.05-.12-.45.2-1.25-.33-1.38-1.62-.42-1.87-1.99-2.79-2.99-.19-.21-.48-.54-.43-.73.7-2.58-1.95-3.77-2.43-5.94-.49-2.22-1.76-4.26-2.72-6.37-.25-.55-.34-1.1-.32-1.69.02-.65.08-1.28-.79-1.52-.52-.14-.61-.65-.61-1.15,0-.53-.07-.92-.63-1.29-.66-.44-1.48-1.05-.62-2.11.35-.43-.12-.88-.35-1.26-.24-.39-.59-.72-.85-1.1q-1.59-2.29.82-3.94c.87-.6.79-1.56-.28-1.94-.72-.26-.99-.48-.68-1.21.65-1.51-.68-2.2-1.38-3.12-.36-.47-.74.03-.98.33-.46.56-.86,1.16-1.54,2.1-.11-2.12-.73-3.54-1.93-4.74-.68-.68-.23-1.68-.33-2.53,1.54-.43,3.04-1.41,3.3-2.79.25-1.35.74-2.13,1.56-3.17.85-1.08,1.23-.9,2.12.06-.02-1.52.06-2.66,1.39-3.23.58-.25.36-.76.06-1.17-.35-.47-.72-.97-.69-1.57.06-1.08-.6-1.39-1.45-1.62-1.04-.27-2.16-.1-3.16-.75-.5-.32-.93.27-1,.86-.21,1.79-.71,3.06-2.98,2.24-.87-.31-1.68.5-1.75,1.29-.09.89.86.7,1.47.73.65.03,1.49,0,1.41.87-.11,1.17-2.31,1.56-1.33,3.25-.06.02-.11.03-.17.05-.64.24-1.28.49-1.91.74-.24-.58-.47-1.17-.71-1.75.31-.8.89-1.71-.7-1.75-.09-1.15-1.16-1.85-1.32-3.06-.08-.65-.36-1.23-.15-1.93.14-.47.22-1.22-.51-1.24-1.41-.03-1.17-.97-1.18-1.82ZM113.9,304.87c.5.06.84-.21,1.04-.68.28-.65.83-.65,1.43-.74.85-.13,2.45.6,2.33-.8-.09-1.02-1.63-.56-2.57-.38-1.76.35-2.72-.25-3.11-2.01-.13-.59-.4-.95-1.03-.95-.66,0-.63.49-.74.95-.16.67-.37,1.33-.68,1.94-.22.44-.49.82-.11,1.26.46.52.82.14,1.16-.18.62-.57,1.02-.55,1.04.4.02.78.39,1.18,1.22,1.18ZM118.52,316.08c1.61-.03,2.33-1.31,2.18-3.78-.04-.63-.38-.76-.91-.77-1.22,0-3.26,1.72-3.27,2.77-.02,1.36.75,1.84,1.99,1.77ZM103.87,299.53c-.75-.51-.1-2.21-1.63-2.15-.54.02-1.55.05-1.29,1.18.24,1.01.34,2.15,1.81,2.1.67-.02,1.12-.27,1.11-1.14ZM108.83,302.47c-.19-.93-.48-1.87-1.54-2.07-1.14-.22-1.27.88-1.49,1.56-.28.91.4,1.4,1.23,1.49.76.08,1.51-.05,1.8-.98ZM96.93,272.88c-.07-.67.19-1.4-.53-1.78-.14-.07-.57.07-.59.17-.22.95-1.69,1.74-.39,2.89.38.34.52.76.31,1.26-.11.28-.17.6.25.66.36.05.52-.19.56-.51.13-.92.26-1.83.39-2.69ZM104.62,271.34c0,1-.02,1.63.25,2.24.19.44.27.96.92.72.46-.17.53-.53.39-.99-.26-.85-.24-1.72-.03-2.57.11-.43.21-.84-.28-1.03-.57-.22-.89.24-1.06.64-.18.4-.17.89-.18.99ZM87.7,255.72c.61.59-.64,2.14.89,2.1,1.16-.03.56-1.41.59-2.17.03-.76.47-2.12-.79-2.07-1.12.04-.27,1.35-.69,2.14ZM87.37,267.17c-.59.36-1.6.33-1.59,1.3,0,.62.01,1.59.87,1.65.92.06,1.41-.7,1.5-1.6.05-.58.05-1.19-.77-1.35ZM108.07,291.62c-1.09.1-1.04.98-1.23,1.58-.26.84.33,1.32,1.07,1.48.66.15,1.21-.16,1.21-.88,0-.89-.41-1.64-1.06-2.18ZM87.01,264.2c-.37-.79-1.2-.76-1.87-.93-.56-.14-.93.25-.76.81.25.82,1.05,1.05,1.77,1.1.42.03.78-.42.86-.98ZM116.4,305.75c-.15,0-.29,0-.44-.01-.16.75-.36,1.5-.45,2.25-.06.49.16.96.73,1,.72.05.68-.55.62-.98-.1-.76-.3-1.51-.46-2.27ZM94.1,276.08c-.09-.53-.33-.99-.76-.81-.8.33-.98,1.2-1.19,1.95-.08.28.27.65.5.53.71-.37,1.15-1.02,1.46-1.67ZM79.41,256.41c.09.36-.16,1.04.36,1,.84-.06.93-.9,1.02-1.58.04-.31.1-.86-.37-.82-.76.07-.98.7-1.01,1.4ZM106.64,304.77c-.26-.38-.52-.92-1.21-.88-.45.02-.82.32-.67.77.19.56.65.92,1.31.89.41-.02.62-.23.57-.78ZM102.49,296.36c.63-.07.78-.61.92-1.07.16-.54-.35-.67-.7-.76-.6-.15-.81.29-.86.78-.05.48.07.91.64,1.05ZM103.22,303.8c-.04-.4.06-.94-.53-.92-.57.01-.75.53-.74,1,0,.39.18.87.65.91.74.06.56-.56.62-.98ZM99.05,292.42c.07.44.26.86.75.77.45-.08.88-.43.83-.97-.04-.49-.47-.62-.91-.61-.53,0-.69.34-.67.81ZM74.1,239.64c-.06-.59-.5-.56-.9-.56-.36,0-.75.07-.7.53.06.56.54.72,1,.72.39,0,.57-.33.6-.7ZM118.09,309.76c.11.48.53.56.89.65.43.11.84-.07.89-.53.05-.51-.46-.62-.82-.67-.4-.06-.75.14-.96.55ZM125.21,319.22c.03-.41-.14-.61-.46-.62-.37-.01-.67.18-.73.55-.06.39.18.65.57.65.4,0,.57-.29.62-.58ZM76.55,221.36c-.02-.29-.22-.43-.45-.35-.26.09-.62.26-.67.46-.09.37.27.42.57.4.32-.02.54-.16.55-.52ZM125.78,313.92c.24-.02.45-.1.47-.37.02-.23-.03-.5-.33-.45-.18.03-.4.21-.48.39-.1.23.05.42.33.44ZM83.96,266.99c-.09-.18-.14-.4-.24-.44-.26-.08-.4.12-.39.35,0,.12.15.3.26.32.09.02.23-.14.37-.24ZM101.05,268.85c-.17-.14-.28-.29-.39-.3-.14-.01-.37.07-.4.16-.08.26.11.4.35.39.13,0,.25-.14.45-.26ZM126.39,319.59c-.1.15-.26.29-.23.38.04.11.22.25.34.25.24.01.43-.14.33-.4-.04-.1-.26-.14-.44-.23ZM63.57,221.95c.2.27.29.39.38.5.11-.09.29-.15.33-.26.06-.21.02-.46-.28-.44-.14,0-.27.13-.42.2ZM76.36,234.48c-.2-.27-.29-.39-.38-.5-.11.09-.29.15-.33.26-.06.21-.02.46.28.44.14,0,.27-.13.42-.2ZM82.22,247.94c-.13-.12-.24-.29-.35-.29-.1,0-.27.18-.28.29-.03.22.05.46.35.39.11-.03.17-.23.28-.39ZM79.03,252.63c-.27.2-.39.29-.5.38.09.11.15.29.26.33.21.06.46.02.44-.28,0-.14-.13-.27-.2-.42ZM81.74,252.12c-.04-.1-.05-.25-.12-.28-.07-.03-.19.06-.29.1.04.1.05.25.12.28.07.03.19-.06.29-.1ZM104.49,275.03c-.1-.04-.22-.14-.28-.11-.07.03-.09.18-.13.28.1.04.21.14.28.11.07-.03.09-.18.13-.28Z"/>
      <path class="cls-5" d="M140.68,252.72c-.94-.06-1.42-.65-1.78-1.45-1.26-2.79-2.54-5.57-3.82-8.36.72-1.64,1.89-2.7,3.76-2.63,1.82.06,2.57-.71,2.27-2.51-.11-.64-.29-1.46.45-1.69,3.13-.95,4.42-3.95,6.69-5.85.24-.2.39-.58.46-.9.61-2.99,1.04-3.27,3.88-2.52,1.99,3.38,4.18,6.69,4.52,10.74.11,1.25,1.37,1.34,1.77,2.22-2.27.41-.9,2.52-1.69,3.76-.63-.86-1.37-1.45-2.25-.59-.79.78-.73,1.63.19,2.37.26.21.46.52.62.82.32.57.59,1.22,0,1.74-.53.47-1.27.49-1.76.03-1.56-1.49-2.16-.24-2.57.94-.36,1.04-.86,1.59-1.99,1.42-.01-2.6-1.03-3.46-3.41-2.74-.98.3-2.17.63-2.75,1.36-.95,1.19-3.07,1.68-2.6,3.83Z"/>
      <path class="cls-5" d="M152.58,226.81c-2.84-.75-3.27-.47-3.88,2.52-.07.32-.22.7-.46.9-2.27,1.9-3.56,4.9-6.69,5.85-.74.23-.55,1.05-.45,1.69.3,1.8-.45,2.57-2.27,2.51-1.87-.07-3.04.99-3.76,2.63-.45-.82-.88-1.53.05-2.45.68-.68.19-1.79.3-2.69.15-1.18-.83-1.19-1.49-1.7-1.06-.82-1.32-2.24-.97-3.58.4-1.52-.09-3.14-1.39-4.04-.5-.34-.92-.25-1.12.3-.63,1.78-1.19,1.01-1.79-.02-.23-.39-.62-.7-.59-1.22,1.01-.03,1.89-.39,2.5-1.2.36-.47.81-.57,1.34-.55-.05.54.13,1.01.39,1.47.3.52.74.7,1.3.57.45-.1.68-.41.73-.85.06-.54.04-1.07-.57-1.29-.37-.13-.77-.17-1.16-.26.51-1.87,1.73-3.2,3.37-4.1,1.03-.57,1.63-1.21,1.96-2.41.34-1.22,1.98-1.43,2.7-2.54.67-1.04,1.8-1.73,2.47-2.82.52-.84,1.09-1.68,2.08-.45.57.71.71-.2,1.07-.29-.06,2.58,1.81,4.17,3.1,6.07.23.33.61.72.18,1.05-.44.34-.69-.2-.96-.46-.3-.3-.53-1.02-1.02-.49-.44.46.25.78.53,1.08,1.85,2.02,3.81,3.95,4.47,6.76ZM136.85,232.05c.97-.08,1.21-.86,1.35-1.67.06-.36-.11-.8-.53-.68-.76.22-1.57.55-1.8,1.38-.17.62.33.9.98.97ZM149.72,224.87c-.01-.29-.21-.43-.44-.34-.17.07-.36.29-.39.48-.06.3.22.35.45.33.28-.02.36-.23.38-.47Z"/>
      <path class="cls-5" d="M178.84,286.68c.51.61.67,1.33.7,2.1.28,1.56-1.22,2.67-1.05,4.2-.48.11-1.41-.29-1.27.6.13.8.84-.07,1.27.1v1.75s-.1.06-.14.1c-.58.7-1.02,1.85-1.96,1.75-.71-.08-.17-1.22-.41-1.84-.16-.42-.43-.72-.91-.64-.56.09-.62.44-.62,1.01-.02,2.22,2.03,3.49,2.44,5.51.06.31.54.41.9.42,0,1.4.02,2.79,0,4.19-.02.91-.14,1.8-1.39,1.76-.47,0-.93,0-1.4,0-.54,0-1.08.03-1.31.64-.22.6.08.97.56,1.31.42.29.97.72.58,1.27-.36.52-.95.29-1.39-.06-.41-.32-.69-.28-.99.17-.91,1.36-2.01,2.07-3.59.92-.19-.14-.57-.03-.86-.04-.02-.72-.07-1.45,1-1.42.36.01.71-.12.64-.6-.06-.37-.38-.4-.67-.41-.58-.02-1.12-.05-1.62-.47-1.9-1.61-2.32-4.07-3.46-6.1-.43-.77-.64-1.5-1.5-1.85,0-.47,0-.93,0-1.4,1.08-.74,1.71-1.44.12-2.39-.42-.25-.83-.81-.82-1.46.99.03,2.65,1.02,1.9-1.41-.15-.48.51-.79.99-1.03,1.27-.65,2.51-1.37,3.06-2.81,1-.13,1.88-.61,1.94-1.64.05-.86-.73-1.35-1.59-1.51v-.7c.91-1.48,2.16-1.7,3.73-1.16.81.28,1.7.61,2.27-.59.35-.74.92-.59,1.72-.29,1.23.47,1.74,1.91,3.13,2.04ZM175.29,288.09c-1.07-.14-2.12.06-2,1.41.15,1.8,1.89,1.3,2.97,1.68.7.25,1.23-.13,1.18-1.02-.08-1.35-.53-2.28-2.15-2.08ZM172.88,298.74c-.03-.27.04-.73-.46-.7-.38.03-.54.4-.56.77-.02.36.05.74.5.74.46,0,.5-.39.51-.81ZM172.38,294.07c-.26.03-.47.17-.4.43.07.29.31.49.63.51.24.02.5-.03.48-.33-.02-.42-.34-.56-.71-.61ZM174.68,303.06c.12-.2.24-.33.25-.46,0-.24-.14-.43-.4-.33-.1.04-.17.27-.16.41.01.12.17.22.31.38Z"/>
      <path class="cls-5" d="M164.48,275.48c.41,0,.88.06,1.12-.33.66-1.05,1.4-.62,2.25-.29,1.11.44,1.39,1.36,1.48,2.35.08.82-.5,1.17-1.25,1.01-.55-.12-1.06-.47-1.59-.68-.6-.23-.84-1.22-1.76-.79-.92.44-1.68,1.14-2.15,1.98-.54.96.5,1.53.97,2.19.24.34,1.02.42.66,1-.25.4-.85.23-1.3.1-.45-.13-.87-.32-1.32-.44-1.12-.29-2.21-.9-2.81.92-.42,1.27-1.52.36-1.97-.07-1.06-1.02-2.05-1.02-3.2-.31.49-1.05.66-2.14.8-3.3.1-.8-.15-2.15,1.31-2.29.66-.06,1.38-.08,1.3-.99-.07-.77-.75-.73-1.33-.8-.45-.05-.95-.36-1.34-.24-1.38.43-1.41-.39-1.46-1.36-.06-1.35.4-2.8-.69-3.98.05-.59.49-1.27.92-.95,1.15.86,2.08-.05,3.1-.09.82-.03,1.5-.09,1.59-1.16.08-1.06-.21-1.65-1.32-2.09-1.11-.43-2.45-.56-3.24-1.67.12-.58.23-1.17.35-1.75.28.04.69-.03.83.13,1.13,1.31,1.76.41,2.49-.46.41-.49.56-.99.53-1.59-.05-.83.1-1.51,1.12-1.61.41-.04.6-.31.58-.72-.02-.54-.4-.64-.84-.65-.41,0-.81,0-1.22,0-.25-1.05-.96-1.8-1.66-2.55-.32-.35-.67-.78-.14-1.16.39-.28.74.04,1,.39.83,1.12,2.51,1.02,3.25,2.27.34.69.71.64,1.37.29,1.09-.58,2.33-.54,3.19.39.78.84.33,1.67-.52,2.33-.31.24-.15.64.12.91.24.23.61.27.75,0,.55-1.02,1.33-.6,2.08-.41.42.65.36,1.38.35,2.1-1.1.81-1.06-.95-1.95-.81-.12.81-.3,1.64-.36,2.47-.04.61.44.96.96,1.08,2.02.44,1.85,2.1,2.06,3.56-.96-.43-1.29-1.46-1.99-2.13-.26-.25-.59-.43-.92-.14-.22.19-.1.43.06.61,1.24,1.35.22,2.18-.58,3.24-1.09,1.43-2.42,2.1-4.16,2.36-.92.14-1.82.26-2.75.27-.29,0-.61.02-.69.37-.03.13.16.43.21.42,1.69-.32,2.12.78,2.42,2.07.03.12.45.27.6.21,1.33-.55,1.38.38,1.61,1.27.4,1.51.99,1.64,2.14.56.33-.31.6-.7.89-1.05ZM158.94,270.63c1.06-.15,1.77-1.32,2.97-1.07-.08-.61-.15-1.23-.24-1.84-.2-1.3-1.23-1-2.03-.97-.96.04-.66.67-.5,1.25.16.54.15,1.05-.6,1.16-.47.07-1.01.21-.89.81.13.65.76.59,1.29.66ZM160.11,279.56c.44-.34.99-.66,1.16-1.33.08-.33-.11-.62-.44-.59-.72.07-1.12.54-1.21,1.24-.04.29.01.58.49.67ZM158.73,280.11c-.12-.08-.3-.25-.49-.28-.3-.04-.35.23-.33.46.02.28.23.37.48.37.29,0,.38-.18.34-.55Z"/>
      <path class="cls-5" d="M173.59,321.69c.7-.37.93-1.03,1.05-1.75,1.77-.19,3.53-.21,5.25.35,0,.35,0,.7,0,1.04.05,2.39.9,2.9,3.29,2.64,1.58-.17,3.11-.06,4.32-1.34.44-.46.98.14,1.49.1.14,1.27,1.36,1.44,2.1,2.1.03.67.38,1.02,1.05,1.05-.11.76.19,1.45.41,2.15.21.67.86,1.27.29,2.05-.39.05-.83.29-.65.63.69,1.33.12,2.41-.35,3.64-.56,1.48-1.66,2.07-2.98,1.18-.44-.3-.87-.83-1.33-.35-.45.47.14.93.41,1.35.18.29.48.52.65.82.25.45.6.96-.08,1.34-.58.32-.86-.08-1.07-.53-.36-.79-.88-1.33-1.76-1.53-.75-.17-.94-.77-.88-1.49.04-.59.04-1.26-.63-1.48-1.27-.42-2.2-1.19-2.91-2.33-.39-.64-.96-.61-1.3.17-.16.37-.27.77-.46,1.13-.19.38-.5.7-.97.51-.5-.19-.42-.69-.33-1.06.13-.56.44-1.07.59-1.63.07-.25.03-.63-.12-.81-.23-.26-.57-.05-.73.19-.78,1.12-2.05-.5-2.88.52-.08.1-.33-.36-.41-.65-.21-.79-.43-1.57-.34-2.4.44-.22.91-.63.57-1.05-.49-.61-.74.57-1.27.35.28-1.63.69-3.27,0-4.9Z"/>
      <path class="cls-5" d="M179.89,320.28c-1.72-.56-3.48-.54-5.25-.35-.08-.98.13-1.61,1.31-1.85.94-.19,1.21-1.14.31-1.63-1.14-.63-1.03-1.77-1.45-2.65-.39-.82-.24-1.59,1.13-1.33,1.23.23,2.17-1.3,1.54-2.43-.42-.76-.95-1.47-1.09-2.36,1.26.04,1.37-.85,1.39-1.76.03-1.4,0-2.79,0-4.19.46-.23.64-.52.54-1.1-.26-1.51-.53-3.05.43-4.47.17-.26,0-.55-.26-.74v-2.45c-.17-1.53,1.33-2.64,1.05-4.2,1.22.58.97,1.8.84,2.67-.15,1.03-.03,1.7.85,2.2,1.08.6.83,1.27.08,1.91-.66.57-.92,1.18-.38,1.97-.12.35-.23.7-.35,1.05-.18.09-.49.15-.52.27-.08.38.27.37.52.43,1.19,0,2.3-.08,1.4-1.75.19-.86.37-1.39,1.27-.4.87.97,1.5,1.81.92,3.21-.35.86-.07,1.82.28,2.7.22.57.52.92,1.16.48.18-.12.41-.28.61-.26.5.05,1.05.55,1.01.82-.2,1.62,2.38,1.84,1.75,3.6-1.98-.03-1.35,1.9-2.1,2.8-.52.03-.95.24-1,.78-.14,1.48-1.09,1.69-2.33,1.68-2.97-.01-2.97.02-2.97,2.97,0,.41,0,.81,0,1.22-.75.94.09,2.22-.7,3.15ZM181.21,302.7c.18-1.18-.07-1.76-.81-1.88-.69-.11-.9.45-.82,1.01.1.67.27,1.47,1.09,1.55.81.08.54-.68.54-.68Z"/>
      <path class="cls-5" d="M67.17,233.11c.64-.25,1.28-.49,1.91-.74.05-.02.11-.03.17-.05-.98-1.69,1.22-2.07,1.33-3.25.08-.86-.76-.84-1.41-.87-.61-.03-1.55.16-1.47-.73.08-.8.89-1.6,1.75-1.29,2.28.81,2.77-.45,2.98-2.24.07-.6.49-1.19,1-.86,1.01.65,2.12.47,3.16.75.85.22,1.51.54,1.45,1.62-.04.6.34,1.1.69,1.57.3.41.53.92-.06,1.17-1.33.57-1.41,1.71-1.39,3.23-.89-.96-1.26-1.14-2.12-.06-.82,1.03-1.3,1.82-1.56,3.17-.26,1.38-1.76,2.36-3.3,2.79-2.15-.57-2.02-2.86-3.15-4.2Z"/>
      <path class="cls-5" d="M180.59,317.13c0-.41,0-.81,0-1.22,0-2.95,0-2.98,2.97-2.97,1.24,0,2.19-.2,2.33-1.68.05-.54.48-.75,1-.78.01.39-.06.8.35,1.05.08.54-.64,1.04-.1,1.59.22.22.54.13.77-.06.6-.49.27-1.01.03-1.53.15-.28.41-.34.7-.35.31.81,1.2.65,1.75,1.05.12.23.23.47.35.7-.07,1.06.01,2.08.63,3.01.75,1.12.24,2.03-.65,2.71-.58.44-1.15.79-1.03,1.63-1.52-1.41-3.14-2.8-5.31-2.69-1.34.07-2.58.1-3.79-.46Z"/>
      <path class="cls-5" d="M152.23,269.17c1.09,1.18.63,2.63.69,3.98.04.97.07,1.79,1.46,1.36.38-.12.88.19,1.34.24.58.06,1.27.03,1.33.8.08.9-.65.93-1.3.99-1.47.14-1.22,1.49-1.31,2.29-.14,1.15-.31,2.25-.8,3.3-.69.09-1.07-.27-1.3-.88-1.37-3.66-3.33-7.06-4.63-10.75-.43-1.22-.11-1.6,1.02-1.67.98,1.95,2.3.54,3.5.35Z"/>
      <path class="cls-5" d="M164.48,275.48c-.3.35-.56.74-.89,1.05-1.15,1.08-1.74.95-2.14-.56-.24-.89-.28-1.82-1.61-1.27-.16.06-.58-.09-.6-.21-.31-1.29-.73-2.4-2.42-2.07-.05,0-.24-.3-.21-.42.07-.35.39-.37.69-.37.92-.01,1.83-.14,2.75-.27,1.74-.26,3.07-.93,4.16-2.36.81-1.06,1.83-1.89.58-3.24-.16-.17-.28-.42-.06-.61.33-.29.66-.11.92.14.71.67,1.03,1.7,1.99,2.13.06.56.25,1.04.7,1.4.35,2.41-1.25,3.68-3.01,4.56-1.15.58-1.21,1.13-.84,2.09Z"/>
      <path class="cls-5" d="M96.92,244.32c-1.99.16-2.14.39-1.37,1.99.43.91.04,1.73-.68,2.26-.77.56-1.76.9-2.49.01-.57-.7-1.2-1.2-1.98-1.61-.77-.41-2.29-3.73-2.16-4.55,0-.06.02-.15.04-.16,1.18-.31,2.35-.64,2.71-2.04,1.03.51,1.76-.85,2.78-.46,1.13.28,1.94.73,1.86,2.16-.05.95,1.21,1.39,1.29,2.39Z"/>
      <path class="cls-5" d="M152.23,269.17c-1.2.19-2.52,1.6-3.5-.35.09-.33.29-.67.27-1-.2-3.07,1.52-4.31,4.29-4.61.79,1.1,2.13,1.23,3.24,1.67,1.11.43,1.4,1.02,1.32,2.09-.08,1.07-.77,1.13-1.59,1.16-1.02.03-1.95.95-3.1.09-.43-.32-.87.36-.92.95Z"/>
      <path class="cls-5" d="M149.43,250.27c1.12.17,1.62-.37,1.99-1.42.41-1.18,1.01-2.43,2.57-.94.48.46,1.23.44,1.76-.03.59-.53.33-1.17,0-1.74-.17-.3-.36-.61-.62-.82-.92-.74-.98-1.59-.19-2.37.88-.86,1.62-.27,2.25.59.8-1.23-.58-3.34,1.69-3.76-.04.78.12,1.46.66,2.1.73.86.45,1.47-.62,1.75-.27.07-.6.13-.79.3-.55.5-1.31,1.2-1.09,1.83.27.78,1.09.02,1.68,0,.41-.01.81-.02,1.22-.03v.7c0,.23,0,.47,0,.7-.28.15-.34.41-.35.7-.05.03-.09.08-.14.1-1.35.52-3.14.4-3.33,2.55-.02.28-.87-.03-1.2-.33-1.13-1.03-2.13-.72-2.99.3-.69.81-1.52.98-2.49.89v-1.05Z"/>
      <path class="cls-5" d="M189.69,320.28c-.12-.84.44-1.19,1.03-1.63.9-.68,1.4-1.59.65-2.71-.62-.92-.7-1.95-.63-3.01,1.41.42,1.36,1.78,1.69,2.82.16.52-.12,1.03.78,1.08.98.06.98.95,1.03,1.7-.29.57-.53,1.17-.89,1.69-.77,1.15-.4,1.69.89,1.81.12.72.34,1.38,1.05,1.75,0,.23,0,.47,0,.7-.81-.1-.59,1.15-1.4,1.05,0-.94.06-1.91-.82-2.59.5.92-.61,2.26.82,2.94.29,1.04-1.21,2.47.7,3.15-.58.35-.43,1.92-1.75,1.05.57-.78-.08-1.38-.29-2.05-.22-.7-.52-1.39-.41-2.15.4-.57.87-1.19.1-1.78-.94-.71-.66.64-1.15.73-.74-.66-1.97-.84-2.1-2.1.55-.25.94-.92,1.7-.56.55.27.93-.02,1.03-.54.1-.5.27-1.14-.17-1.48-.6-.47-.66.28-.96.56-.53.48-.81.16-.9-.42Z"/>
      <path class="cls-5" d="M149.43,250.27v1.05c-.47.25-.96.4-1.5.35-1.26-.11-2.42-.07-3.05,1.32-.27.6-.9.38-1.4.43-.8-.77-1.8-.75-2.8-.7-.47-2.15,1.65-2.64,2.6-3.83.58-.73,1.77-1.06,2.75-1.36,2.38-.72,3.4.14,3.41,2.74Z"/>
      <path class="cls-5" d="M178.84,286.68c-1.38-.13-1.89-1.57-3.13-2.04-.8-.3-1.38-.45-1.72.29-.57,1.2-1.46.88-2.27.59-1.57-.55-2.83-.32-3.73,1.16-.39-.79-2.06-.64-1.65-1.89.35-1.1,1.74-.12,2.25-.61,1.76-1.7,4.16-1.51,6.18-2.38.9-.39,1.54-.71,1.63.67.02.36-.12.76.49.94,1.98.56,2.27,1.1,1.96,3.27Z"/>
      <path class="cls-5" d="M162.38,301.03c.86.34,1.07,1.08,1.5,1.85,1.13,2.03,1.56,4.49,3.46,6.1.5.42,1.04.45,1.62.47.29.01.61.05.67.41.08.48-.27.61-.64.6-1.07-.03-1.02.7-1,1.42-.54.24-1.24,1.2-1.58-.06-.95-3.5-3.41-6.33-4.26-9.86-.09-.37-.1-.68.24-.93Z"/>
      <path class="cls-5" d="M168.34,268.82c-.45-.36-.64-.85-.7-1.4-.21-1.46-.04-3.12-2.06-3.56-.52-.11-1-.47-.96-1.08.06-.84.24-1.67.36-2.47.9-.14.86,1.62,1.95.81,1.7.58,2.23,1.55,1.94,3.75-.06.47-.22.87.17,1.27,1.35,1.4,1.24,1.8-.71,2.68Z"/>
      <path class="cls-5" d="M157.13,256.57c.41,0,.81,0,1.22,0,.44,0,.81.11.84.65.02.4-.17.68-.58.72-1.02.1-1.17.78-1.12,1.61.03.6-.11,1.1-.53,1.59-.73.87-1.36,1.77-2.49.46-.14-.16-.55-.09-.83-.13-.66-1.09-.29-1.79.77-2.39,1.09-.62,2.36-1.09,2.73-2.51Z"/>
      <path class="cls-5" d="M166.59,259.02c-.75-.18-1.54-.61-2.08.41-.15.27-.51.23-.75,0-.28-.26-.43-.67-.12-.91.85-.66,1.3-1.49.52-2.33-.86-.93-2.1-.96-3.19-.39-.66.35-1.04.4-1.37-.29v-.35c.71-.03.71-.54.7-1.05.97.04,1.89.4,2.89.37,2.69-.06,4.08,1.85,3.41,4.53Z"/>
      <path class="cls-5" d="M173.59,321.69c.69,1.63.28,3.27,0,4.9-1.11-.37-1.14-1.54-1.58-2.33-.66-1.2-.98-2.58-1.75-3.78-.37-.58-.41-1.49.42-1.8.95-.36.65.67.93,1.07.54.76,1.18,1.44,1.98,1.94Z"/>
      <path class="cls-5" d="M185.35,349.24c-.18-.13-.39-.2-.44-.34-.63-1.65-2.46-2.49-2.91-4.23-.17-.68-.71-.87-1.15-1.22-.65-.54-.82-1.11-.13-1.76.76-.71,1.15,0,1.54.44.25.29.33.73.53,1.07.91,1.6,1.29,3.49,2.65,4.86.25.25.45.57.3.94-.05.11-.26.16-.4.24Z"/>
      <path class="cls-5" d="M159.58,247.82c0-.29.07-.55.35-.7,1.89.04,2.93.91,3.57,2.83.29.86.13,1.68-.63,1.87-.82.2-1.54-.34-1.53-1.39,0-.4,0-.81,0-1.21.03-.75.07-1.51-1.05-1.4h-.7Z"/>
      <path class="cls-5" d="M161.68,295.78c-.01.65.4,1.21.82,1.46,1.59.95.96,1.65-.12,2.39-1.2.07-2.09-.27-2.09-1.67,0-1-.32-2.25,1.39-2.18Z"/>
      <path class="cls-5" d="M140.68,252.72c1-.05,2-.06,2.8.7-.13.44-.21.91-.39,1.33-.28.66-.44,1.7-1.44,1.34-.87-.31-1.57-1.03-1.21-2.19.12-.38.16-.79.23-1.18Z"/>
      <path class="cls-5" d="M190.39,312.23c-.55-.4-1.44-.24-1.75-1.05.14-.81-.32-1.71.35-2.45,1.85.83,2.01,1.22,1.4,3.5Z"/>
      <path class="cls-5" d="M188.99,308.73c-.67.74-.21,1.64-.35,2.45-.29,0-.55.07-.7.35h-.7c-.41-.25-.34-.67-.35-1.05.75-.9.12-2.83,2.1-2.8,0,.35,0,.7,0,1.05Z"/>
      <path class="cls-5" d="M167.99,287.38c.86.17,1.64.65,1.59,1.51-.06,1.02-.94,1.5-1.94,1.64.12-1.05.23-2.1.35-3.15Z"/>
      <path class="cls-5" d="M181.99,297.53c.9,1.67-.21,1.75-1.4,1.75v-.7c.12-.35.23-.7.35-1.05h1.05Z"/>
      <path class="cls-5" d="M159.93,246.42v-.7c.28-.15.34-.41.35-.7.29,0,.55-.07.7-.35.42.4.87.89.53,1.46-.34.56-1.04.21-1.58.29Z"/>
      <path class="cls-5" d="M160.28,247.82c1.12-.11,1.08.65,1.05,1.4-.91-.05-1.08-.65-1.05-1.4Z"/>
      <path class="cls-5" d="M173.59,326.59c.54.22.79-.96,1.27-.35.33.42-.13.82-.57,1.05-.45-.01-.69-.25-.7-.7Z"/>
      <path class="cls-5" d="M65.77,229.61c1.59.04,1.01.95.7,1.75-.47-.49-.55-1.13-.7-1.75Z"/>
      <path class="cls-5" d="M120.26,202.38c.28.03.41.23.39.47-.03.34-.25.5-.59.41-.26-.07-.34-.27-.3-.53.05-.27.25-.35.5-.35Z"/>
      <path class="cls-5" d="M119.18,200.96c.25.04.42.19.43.44.01.25-.14.48-.4.41-.18-.05-.4-.27-.45-.45-.07-.25.16-.38.41-.4Z"/>
      <path class="cls-5" d="M160.28,254.12c0,.51,0,1.02-.7,1.05,0-.51-.01-1.02.7-1.05Z"/>
      <path class="cls-5" d="M167.89,313.43c.1.04.19.08.29.13-.04.1-.06.25-.13.28-.07.03-.19-.07-.29-.11.04-.1.08-.19.13-.29Z"/>
      <path class="cls-5" d="M160.98,244.67c-.15.28-.41.34-.7.35.07-.45.14-.88.7-.35Z"/>
      <path class="cls-5" d="M132.63,225.42c.39.08.79.12,1.16.26.61.22.63.75.57,1.29-.05.44-.28.75-.73.85-.57.13-1.01-.05-1.3-.57-.26-.46-.44-.93-.39-1.47.23-.12.47-.23.7-.35Z"/>
      <path class="cls-5" d="M96.91,266.84c-.04.14-.03.35-.13.47-1.28,1.55-1.28,3.76-2.44,5.22-.81,1.02-2.33,1.53-3.05,2.86-.14.25-.76.03-1.14-.15-.83-.4-1.62-.92-2.62-.84-.37.03-.68-.14-.72-.58-.03-.39.11-.66.53-.77,1.48-.39,1.6-2.28,3.1-2.77.43-.14.16-1.06-.05-1.61-.61-1.6.56-2.15,1.62-2.75.44-.25.64-.01.69.41.06.51.04,1.29.78.96.67-.29,1.77.26,2.01-.92.07-.32-.19-.86.54-.68.62.15.86.53.86,1.15Z"/>
      <path class="cls-5" d="M113.9,304.87c-.83,0-1.2-.4-1.22-1.18-.02-.95-.42-.97-1.04-.4-.35.32-.7.7-1.16.18-.39-.44-.11-.82.11-1.26.3-.61.52-1.28.68-1.94.11-.47.08-.96.74-.95.63,0,.9.36,1.03.95.39,1.76,1.34,2.35,3.11,2.01.94-.19,2.48-.64,2.57.38.12,1.4-1.48.67-2.33.8-.6.09-1.15.09-1.43.74-.2.47-.55.74-1.04.68Z"/>
      <path class="cls-5" d="M118.52,316.08c-1.25.07-2.01-.41-1.99-1.77.01-1.05,2.05-2.78,3.27-2.77.52,0,.87.14.91.77.15,2.47-.57,3.75-2.18,3.78Z"/>
      <path class="cls-5" d="M103.87,299.53c.02.87-.44,1.12-1.11,1.14-1.47.05-1.57-1.09-1.81-2.1-.27-1.13.75-1.16,1.29-1.18,1.53-.06.88,1.63,1.63,2.15Z"/>
      <path class="cls-5" d="M108.83,302.47c-.29.93-1.04,1.07-1.8.98-.83-.09-1.51-.58-1.23-1.49.21-.68.35-1.78,1.49-1.56,1.05.2,1.34,1.14,1.54,2.07Z"/>
      <path class="cls-5" d="M96.93,272.88c-.12.86-.25,1.77-.39,2.69-.05.32-.21.57-.56.51-.42-.06-.37-.38-.25-.66.21-.5.07-.92-.31-1.26-1.3-1.15.17-1.94.39-2.89.02-.1.46-.24.59-.17.72.39.46,1.11.53,1.78Z"/>
      <path class="cls-5" d="M104.62,271.34c.02-.1,0-.59.18-.99.18-.4.49-.87,1.06-.64.49.19.38.6.28,1.03-.21.85-.23,1.73.03,2.57.14.47.07.83-.39.99-.65.24-.73-.29-.92-.72-.27-.61-.25-1.24-.25-2.24Z"/>
      <path class="cls-5" d="M87.7,255.72c.41-.78-.43-2.09.69-2.14,1.26-.05.83,1.31.79,2.07-.03.76.57,2.14-.59,2.17-1.52.04-.28-1.52-.89-2.1Z"/>
      <path class="cls-5" d="M87.37,267.17c.82.16.83.76.77,1.35-.08.91-.58,1.66-1.5,1.6-.86-.05-.87-1.03-.87-1.65,0-.97,1.01-.94,1.59-1.3Z"/>
      <path class="cls-5" d="M108.07,291.62c.65.53,1.06,1.28,1.06,2.18,0,.73-.55,1.03-1.21.88-.74-.17-1.33-.64-1.07-1.48.18-.6.14-1.48,1.23-1.58Z"/>
      <path class="cls-5" d="M87.01,264.2c-.08.56-.44,1-.86.98-.72-.05-1.52-.28-1.77-1.1-.17-.55.2-.95.76-.81.68.17,1.51.14,1.87.93Z"/>
      <path class="cls-5" d="M116.4,305.75c.16.75.36,1.5.46,2.27.06.43.1,1.03-.62.98-.57-.04-.79-.51-.73-1,.1-.76.3-1.5.45-2.25.15,0,.29,0,.44.01Z"/>
      <path class="cls-5" d="M94.1,276.08c-.3.66-.74,1.31-1.46,1.67-.23.12-.57-.25-.5-.53.21-.75.39-1.62,1.19-1.95.43-.18.68.28.76.81Z"/>
      <path class="cls-5" d="M79.41,256.41c.03-.7.26-1.33,1.01-1.4.46-.04.41.5.37.82-.09.68-.18,1.51-1.02,1.58-.52.04-.27-.64-.36-1Z"/>
      <path class="cls-5" d="M106.64,304.77c.05.55-.16.76-.57.78-.66.03-1.12-.33-1.31-.89-.15-.45.22-.75.67-.77.68-.03.94.51,1.21.88Z"/>
      <path class="cls-5" d="M102.49,296.36c-.57-.15-.69-.58-.64-1.05.05-.49.26-.93.86-.78.35.09.87.22.7.76-.14.46-.29,1-.92,1.07Z"/>
      <path class="cls-5" d="M103.22,303.8c-.06.41.12,1.04-.62.98-.47-.04-.65-.51-.65-.91,0-.47.17-.99.74-1,.59-.01.49.52.53.92Z"/>
      <path class="cls-5" d="M99.05,292.42c-.02-.48.14-.81.67-.81.44,0,.87.12.91.61.05.54-.38.89-.83.97-.48.09-.68-.33-.75-.77Z"/>
      <path class="cls-5" d="M74.1,239.64c-.03.37-.21.69-.6.7-.47,0-.94-.16-1-.72-.05-.46.34-.53.7-.53.4,0,.83-.03.9.56Z"/>
      <path class="cls-5" d="M118.09,309.76c.2-.41.56-.61.96-.55.36.05.87.16.82.67-.04.46-.46.64-.89.53-.36-.09-.78-.18-.89-.65Z"/>
      <path class="cls-5" d="M125.21,319.22c-.06.29-.23.59-.62.58-.39,0-.63-.27-.57-.65.06-.37.36-.56.73-.55.32,0,.5.21.46.62Z"/>
      <path class="cls-5" d="M76.55,221.36c0,.36-.23.5-.55.52-.3.02-.66-.04-.57-.4.05-.2.41-.37.67-.46.24-.09.44.06.45.35Z"/>
      <path class="cls-5" d="M125.78,313.92c-.28-.02-.43-.21-.33-.44.07-.17.29-.35.48-.39.3-.05.35.22.33.45-.02.27-.23.35-.47.37Z"/>
      <path class="cls-5" d="M83.96,266.99c-.14.1-.28.26-.37.24-.11-.03-.25-.2-.26-.32-.02-.24.12-.43.39-.35.1.03.15.25.24.44Z"/>
      <path class="cls-5" d="M101.05,268.85c-.2.12-.32.25-.45.26-.24.01-.44-.13-.35-.39.03-.09.27-.18.4-.16.12,0,.22.16.39.3Z"/>
      <path class="cls-5" d="M126.39,319.59c.19.09.4.13.44.23.1.26-.09.41-.33.4-.12,0-.3-.14-.34-.25-.03-.09.13-.23.23-.38Z"/>
      <path class="cls-5" d="M63.57,221.95c.15-.08.28-.2.42-.2.3-.01.35.23.28.44-.03.11-.21.18-.33.26-.09-.12-.18-.24-.38-.5Z"/>
      <path class="cls-5" d="M76.36,234.48c-.15.08-.28.2-.42.2-.3.01-.35-.23-.28-.44.03-.11.21-.18.33-.26.09.12.18.24.38.5Z"/>
      <path class="cls-5" d="M82.22,247.94c-.11.16-.17.37-.28.39-.29.07-.38-.17-.35-.39.02-.12.18-.29.28-.29.1,0,.21.17.35.29Z"/>
      <path class="cls-5" d="M79.03,252.63c.08.15.2.28.2.42.01.3-.23.35-.44.28-.11-.03-.18-.21-.26-.33.12-.09.24-.18.5-.38Z"/>
      <path class="cls-5" d="M81.74,252.12c-.1.04-.22.13-.29.1-.07-.03-.08-.18-.12-.28.1-.04.22-.13.29-.1.07.03.08.18.12.28Z"/>
      <path class="cls-5" d="M104.49,275.03c-.04.1-.06.25-.13.28-.07.03-.19-.07-.28-.11.04-.1.06-.25.13-.28.07-.03.19.07.28.11Z"/>
      <path class="cls-5" d="M136.85,232.05c-.64-.07-1.15-.35-.98-.97.23-.84,1.05-1.17,1.8-1.38.41-.12.59.32.53.68-.14.81-.37,1.58-1.35,1.67Z"/>
      <path class="cls-5" d="M149.72,224.87c-.02.24-.1.45-.38.47-.23.02-.51-.04-.45-.33.03-.18.22-.4.39-.48.23-.1.42.05.44.34Z"/>
      <path class="cls-5" d="M178.49,295.43c.26.19.44.48.26.74-.96,1.42-.69,2.96-.43,4.47.1.58-.08.87-.54,1.1-.36-.02-.84-.11-.9-.42-.41-2.02-2.46-3.28-2.44-5.51,0-.57.07-.91.62-1.01.48-.08.75.22.91.64.24.62-.3,1.77.41,1.84.94.1,1.38-1.05,1.96-1.75.04-.04.09-.07.14-.1Z"/>
      <path class="cls-5" d="M175.29,288.09c1.62-.2,2.07.73,2.15,2.08.05.89-.48,1.26-1.18,1.02-1.08-.38-2.82.12-2.97-1.68-.11-1.36.93-1.56,2-1.41Z"/>
      <path class="cls-5" d="M172.88,298.74c-.01.41-.05.8-.51.81-.46,0-.52-.38-.5-.74.02-.37.18-.74.56-.77.49-.03.42.42.46.7Z"/>
      <path class="cls-5" d="M178.49,292.98v.7c-.43-.17-1.14.71-1.27-.1-.14-.89.79-.49,1.27-.6Z"/>
      <path class="cls-5" d="M172.38,294.07c.37.05.69.19.71.61.01.31-.25.35-.48.33-.32-.02-.56-.22-.63-.51-.06-.26.14-.4.4-.43Z"/>
      <path class="cls-5" d="M174.68,303.06c-.14-.16-.29-.26-.31-.38-.01-.13.06-.37.16-.41.26-.1.41.09.4.33,0,.13-.13.25-.25.46Z"/>
      <path class="cls-5" d="M158.94,270.63c-.54-.07-1.16,0-1.29-.66-.12-.6.42-.73.89-.81.74-.11.75-.62.6-1.16-.17-.57-.46-1.21.5-1.25.81-.04,1.83-.34,2.03.97.09.61.16,1.23.24,1.84-1.19-.25-1.91.92-2.97,1.07Z"/>
      <path class="cls-5" d="M160.11,279.56c-.48-.09-.53-.38-.49-.67.09-.7.48-1.18,1.21-1.24.33-.03.52.26.44.59-.16.67-.72.99-1.16,1.33Z"/>
      <path class="cls-5" d="M158.73,280.11c.04.37-.06.55-.34.55-.24,0-.45-.1-.48-.37-.02-.23.03-.5.33-.46.19.03.36.2.49.28Z"/>
      <path class="cls-5" d="M189.69,320.28c.1.59.38.91.9.42.3-.28.37-1.03.96-.56.44.35.27.99.17,1.48-.11.52-.48.81-1.03.54-.76-.37-1.16.31-1.7.56-.51.04-1.04-.56-1.49-.1-1.22,1.27-2.75,1.16-4.32,1.34-2.39.26-3.24-.25-3.29-2.64,0-.35,0-.7,0-1.04.79-.93-.05-2.21.7-3.15,1.22.56,2.46.53,3.79.46,2.17-.11,3.79,1.28,5.31,2.69Z"/>
      <path class="cls-5" d="M191.09,324.84c.49-.08.21-1.44,1.15-.73.77.59.3,1.2-.1,1.78-.67-.03-1.02-.38-1.05-1.05Z"/>
      <path class="cls-5" d="M181.21,302.7s.27.76-.54.68c-.82-.08-.99-.88-1.09-1.55-.08-.55.13-1.12.82-1.01.74.12.99.7.81,1.88Z"/>
      <path class="cls-5" d="M180.59,298.58v.7c-.26-.05-.6-.05-.52-.43.03-.12.34-.18.52-.27Z"/>
      <path class="cls-5" d="M187.24,311.53h.7c.24.51.57,1.04-.03,1.53-.23.19-.55.28-.77.06-.54-.54.18-1.05.1-1.59Z"/>
    </g>
    <path class="cls-3" d="M193.89,325.54v.35c-1.42-.68-.32-2.02-.82-2.94.88.69.81,1.65.82,2.59Z"/>
  </g>
</svg>